<?xml version="1.0" encoding="utf-8"?>
<!-- Generator: Adobe Illustrator 28.0.0, SVG Export Plug-In . SVG Version: 6.00 Build 0)  -->
<svg version="1.1" id="Layer_2_00000171708928399653134490000006427526245589922492_"
	 xmlns="http://www.w3.org/2000/svg" xmlns:xlink="http://www.w3.org/1999/xlink" x="0px" y="0px" viewBox="0 0 3513 311.8"
	 style="enable-background:new 0 0 3513 311.8;" xml:space="preserve">
<style type="text/css">
	.st0{fill:none;stroke:#808080;stroke-width:4;stroke-miterlimit:10;}
	.st1{fill:#B3B3B3;}
	.st2{font-family:'IBMPlexSerif-Regular';}
	.st3{font-size:50px;}
	.st4{letter-spacing:-5;}
	.st5{font-size:35px;}
	.st6{letter-spacing:-3;}
	.st7{opacity:0.7;}
	.st8{fill:none;stroke:#808080;stroke-width:6;stroke-linecap:square;stroke-miterlimit:10;}
	.st9{fill:none;stroke:#808080;stroke-width:5.54;stroke-miterlimit:10;}
	.st10{fill:none;stroke:#808080;stroke-width:4.62;stroke-miterlimit:10;}
	.st11{fill:none;stroke:#808080;stroke-miterlimit:10;}
</style>
<g id="_Верхний_таймлайн">
	<g>
		<line class="st0" x1="36.6" y1="199.5" x2="3476.4" y2="199.5"/>
		<text transform="matrix(1 0 0 1 105.3951 154.7751)" class="st1 st2 st3">1700 </text>
		<text transform="matrix(1 0 0 1 236.9951 154.7751)" class="st1 st2 st3 st4">г</text>
		<text transform="matrix(1 0 0 1 256.1451 154.7751)" class="st1 st2 st3">.</text>
		<text transform="matrix(1 0 0 1 620.0649 154.7751)" class="st1 st2 st5">1750 </text>
		<text transform="matrix(1 0 0 1 712.1849 154.7751)" class="st1 st2 st5 st6">г</text>
		<text transform="matrix(1 0 0 1 725.585 154.7751)" class="st1 st2 st5">.</text>
		<g class="st7">
			<text transform="matrix(1 0 0 1 1086.345 154.7751)" class="st1 st2 st3">1800 </text>
			<text transform="matrix(1 0 0 1 1217.9449 154.7751)" class="st1 st2 st3 st4">г</text>
			<text transform="matrix(1 0 0 1 1237.095 154.7751)" class="st1 st2 st3">.</text>
			<text transform="matrix(1 0 0 1 1603.8251 154.7751)" class="st1 st2 st5">1850 </text>
			<text transform="matrix(1 0 0 1 1695.9451 154.7751)" class="st1 st2 st5 st6">г</text>
			<text transform="matrix(1 0 0 1 1709.3451 154.7751)" class="st1 st2 st5">.</text>
			<text transform="matrix(1 0 0 1 2587.575 154.7751)" class="st1 st2 st5">1950 </text>
			<text transform="matrix(1 0 0 1 2679.6951 154.7751)" class="st1 st2 st5 st6">г</text>
			<text transform="matrix(1 0 0 1 2693.095 154.7751)" class="st1 st2 st5">.</text>
			<text transform="matrix(1 0 0 1 2069.8252 154.7751)" class="st1 st2 st3">1900 </text>
			<text transform="matrix(1 0 0 1 2201.425 154.7751)" class="st1 st2 st3 st4">г</text>
			<text transform="matrix(1 0 0 1 2220.5752 154.7751)" class="st1 st2 st3">.</text>
			<text transform="matrix(1 0 0 1 3054.365 154.7751)" class="st1 st2 st3">2000 </text>
			<text transform="matrix(1 0 0 1 3185.9651 154.7751)" class="st1 st2 st3 st4">г</text>
			<text transform="matrix(1 0 0 1 3205.115 154.7751)" class="st1 st2 st3">.</text>
		</g>
		<g>
			<line class="st8" x1="185.5" y1="173" x2="185.5" y2="198"/>
			<line class="st8" x1="1169.1" y1="173" x2="1169.1" y2="198"/>
			<line class="st8" x1="2152.8" y1="173" x2="2152.8" y2="198"/>
			<line class="st8" x1="3136.4" y1="173" x2="3136.4" y2="198"/>
		</g>
		<g>
			<line class="st9" x1="677.5" y1="172.8" x2="677.5" y2="197.8"/>
			<line class="st9" x1="1661.3" y1="172.8" x2="1661.3" y2="197.8"/>
			<line class="st9" x1="2645" y1="172.8" x2="2645" y2="197.8"/>
		</g>
		<g>
			<line class="st10" x1="185.6" y1="178" x2="185.6" y2="198"/>
			<line class="st10" x1="284" y1="178" x2="284" y2="198"/>
			<line class="st10" x1="382.4" y1="178" x2="382.4" y2="198"/>
			<line class="st10" x1="480.8" y1="178" x2="480.8" y2="198"/>
			<line class="st10" x1="579.1" y1="178" x2="579.1" y2="198"/>
			<line class="st10" x1="775.9" y1="178" x2="775.9" y2="198"/>
			<line class="st10" x1="874.3" y1="178" x2="874.3" y2="198"/>
			<line class="st10" x1="972.6" y1="178" x2="972.6" y2="198"/>
			<line class="st10" x1="1071" y1="178" x2="1071" y2="198"/>
			<line class="st10" x1="1169.4" y1="178" x2="1169.4" y2="198"/>
			<line class="st10" x1="1267.8" y1="178" x2="1267.8" y2="198"/>
			<line class="st10" x1="1366.1" y1="178" x2="1366.1" y2="198"/>
			<line class="st10" x1="1464.5" y1="178" x2="1464.5" y2="198"/>
			<line class="st10" x1="1562.9" y1="178" x2="1562.9" y2="198"/>
			<line class="st10" x1="1759.6" y1="178" x2="1759.6" y2="198"/>
			<line class="st10" x1="1858" y1="178" x2="1858" y2="198"/>
			<line class="st10" x1="1956.4" y1="178" x2="1956.4" y2="198"/>
			<line class="st10" x1="2054.8" y1="178" x2="2054.8" y2="198"/>
			<line class="st10" x1="2153.1" y1="178" x2="2153.1" y2="198"/>
			<line class="st10" x1="2251.5" y1="178" x2="2251.5" y2="198"/>
			<line class="st10" x1="2349.9" y1="178" x2="2349.9" y2="198"/>
			<line class="st10" x1="2448.3" y1="178" x2="2448.3" y2="198"/>
			<line class="st10" x1="2546.6" y1="178" x2="2546.6" y2="198"/>
			<line class="st10" x1="2743.4" y1="178" x2="2743.4" y2="198"/>
			<line class="st10" x1="2841.8" y1="178" x2="2841.8" y2="198"/>
			<line class="st10" x1="2940.2" y1="178" x2="2940.2" y2="198"/>
			<line class="st10" x1="3038.5" y1="178" x2="3038.5" y2="198"/>
			<line class="st10" x1="3136.9" y1="178" x2="3136.9" y2="198"/>
			<line class="st10" x1="3235.3" y1="178" x2="3235.3" y2="198"/>
			<line class="st10" x1="3333.7" y1="178" x2="3333.7" y2="198"/>
		</g>
		<g>
			<line class="st11" x1="87.3" y1="184.3" x2="87.3" y2="199.3"/>
			<line class="st11" x1="97.1" y1="184.3" x2="97.1" y2="199.3"/>
			<line class="st11" x1="106.9" y1="184.3" x2="106.9" y2="199.3"/>
			<line class="st11" x1="116.8" y1="184.3" x2="116.8" y2="199.3"/>
			<line class="st11" x1="126.6" y1="184.3" x2="126.6" y2="199.3"/>
			<line class="st11" x1="136.5" y1="184.3" x2="136.5" y2="199.3"/>
			<line class="st11" x1="146.3" y1="184.3" x2="146.3" y2="199.3"/>
			<line class="st11" x1="156.1" y1="184.3" x2="156.1" y2="199.3"/>
			<line class="st11" x1="166" y1="184.3" x2="166" y2="199.3"/>
			<line class="st11" x1="175.8" y1="184.3" x2="175.8" y2="199.3"/>
			<line class="st11" x1="185.6" y1="184.3" x2="185.6" y2="199.3"/>
			<line class="st11" x1="195.5" y1="184.3" x2="195.5" y2="199.3"/>
			<line class="st11" x1="205.3" y1="184.3" x2="205.3" y2="199.3"/>
			<line class="st11" x1="215.2" y1="184.3" x2="215.2" y2="199.3"/>
			<line class="st11" x1="225" y1="184.3" x2="225" y2="199.3"/>
			<line class="st11" x1="234.8" y1="184.3" x2="234.8" y2="199.3"/>
			<line class="st11" x1="244.7" y1="184.3" x2="244.7" y2="199.3"/>
			<line class="st11" x1="254.5" y1="184.3" x2="254.5" y2="199.3"/>
			<line class="st11" x1="264.3" y1="184.3" x2="264.3" y2="199.3"/>
			<line class="st11" x1="274.2" y1="184.3" x2="274.2" y2="199.3"/>
			<line class="st11" x1="284" y1="184.3" x2="284" y2="199.3"/>
			<line class="st11" x1="293.9" y1="184.3" x2="293.9" y2="199.3"/>
			<line class="st11" x1="303.7" y1="184.3" x2="303.7" y2="199.3"/>
			<line class="st11" x1="313.5" y1="184.3" x2="313.5" y2="199.3"/>
			<line class="st11" x1="323.4" y1="184.3" x2="323.4" y2="199.3"/>
			<line class="st11" x1="333.2" y1="184.3" x2="333.2" y2="199.3"/>
			<line class="st11" x1="343" y1="184.3" x2="343" y2="199.3"/>
			<line class="st11" x1="352.9" y1="184.3" x2="352.9" y2="199.3"/>
			<line class="st11" x1="362.7" y1="184.3" x2="362.7" y2="199.3"/>
			<line class="st11" x1="372.6" y1="184.3" x2="372.6" y2="199.3"/>
			<line class="st11" x1="382.4" y1="184.3" x2="382.4" y2="199.3"/>
			<line class="st11" x1="392.2" y1="184.3" x2="392.2" y2="199.3"/>
			<line class="st11" x1="402.1" y1="184.3" x2="402.1" y2="199.3"/>
			<line class="st11" x1="411.9" y1="184.3" x2="411.9" y2="199.3"/>
			<line class="st11" x1="421.7" y1="184.3" x2="421.7" y2="199.3"/>
			<line class="st11" x1="431.6" y1="184.3" x2="431.6" y2="199.3"/>
			<line class="st11" x1="441.4" y1="184.3" x2="441.4" y2="199.3"/>
			<line class="st11" x1="451.3" y1="184.3" x2="451.3" y2="199.3"/>
			<line class="st11" x1="461.1" y1="184.3" x2="461.1" y2="199.3"/>
			<line class="st11" x1="470.9" y1="184.3" x2="470.9" y2="199.3"/>
			<line class="st11" x1="480.8" y1="184.3" x2="480.8" y2="199.3"/>
			<line class="st11" x1="490.6" y1="184.3" x2="490.6" y2="199.3"/>
			<line class="st11" x1="500.4" y1="184.3" x2="500.4" y2="199.3"/>
			<line class="st11" x1="510.3" y1="184.3" x2="510.3" y2="199.3"/>
			<line class="st11" x1="520.1" y1="184.3" x2="520.1" y2="199.3"/>
			<line class="st11" x1="530" y1="184.3" x2="530" y2="199.3"/>
			<line class="st11" x1="539.8" y1="184.3" x2="539.8" y2="199.3"/>
			<line class="st11" x1="549.6" y1="184.3" x2="549.6" y2="199.3"/>
			<line class="st11" x1="559.5" y1="184.3" x2="559.5" y2="199.3"/>
			<line class="st11" x1="569.3" y1="184.3" x2="569.3" y2="199.3"/>
			<line class="st11" x1="579.1" y1="184.3" x2="579.1" y2="199.3"/>
			<line class="st11" x1="589" y1="184.3" x2="589" y2="199.3"/>
			<line class="st11" x1="598.8" y1="184.3" x2="598.8" y2="199.3"/>
			<line class="st11" x1="608.7" y1="184.3" x2="608.7" y2="199.3"/>
			<line class="st11" x1="618.5" y1="184.3" x2="618.5" y2="199.3"/>
			<line class="st11" x1="628.3" y1="184.3" x2="628.3" y2="199.3"/>
			<line class="st11" x1="638.2" y1="184.3" x2="638.2" y2="199.3"/>
			<line class="st11" x1="648" y1="184.3" x2="648" y2="199.3"/>
			<line class="st11" x1="657.8" y1="184.3" x2="657.8" y2="199.3"/>
			<line class="st11" x1="667.7" y1="184.3" x2="667.7" y2="199.3"/>
			<line class="st11" x1="677.5" y1="184.3" x2="677.5" y2="199.3"/>
			<line class="st11" x1="687.4" y1="184.3" x2="687.4" y2="199.3"/>
			<line class="st11" x1="697.2" y1="184.3" x2="697.2" y2="199.3"/>
			<line class="st11" x1="707" y1="184.3" x2="707" y2="199.3"/>
			<line class="st11" x1="716.9" y1="184.3" x2="716.9" y2="199.3"/>
			<line class="st11" x1="726.7" y1="184.3" x2="726.7" y2="199.3"/>
			<line class="st11" x1="736.5" y1="184.3" x2="736.5" y2="199.3"/>
			<line class="st11" x1="746.4" y1="184.3" x2="746.4" y2="199.3"/>
			<line class="st11" x1="756.2" y1="184.3" x2="756.2" y2="199.3"/>
			<line class="st11" x1="766.1" y1="184.3" x2="766.1" y2="199.3"/>
			<line class="st11" x1="775.9" y1="184.3" x2="775.9" y2="199.3"/>
			<line class="st11" x1="785.7" y1="184.3" x2="785.7" y2="199.3"/>
			<line class="st11" x1="795.6" y1="184.3" x2="795.6" y2="199.3"/>
			<line class="st11" x1="805.4" y1="184.3" x2="805.4" y2="199.3"/>
			<line class="st11" x1="815.2" y1="184.3" x2="815.2" y2="199.3"/>
			<line class="st11" x1="825.1" y1="184.3" x2="825.1" y2="199.3"/>
			<line class="st11" x1="834.9" y1="184.3" x2="834.9" y2="199.3"/>
			<line class="st11" x1="844.8" y1="184.3" x2="844.8" y2="199.3"/>
			<line class="st11" x1="854.6" y1="184.3" x2="854.6" y2="199.3"/>
			<line class="st11" x1="864.4" y1="184.3" x2="864.4" y2="199.3"/>
			<line class="st11" x1="874.3" y1="184.3" x2="874.3" y2="199.3"/>
			<line class="st11" x1="884.1" y1="184.3" x2="884.1" y2="199.3"/>
			<line class="st11" x1="893.9" y1="184.3" x2="893.9" y2="199.3"/>
			<line class="st11" x1="903.8" y1="184.3" x2="903.8" y2="199.3"/>
			<line class="st11" x1="913.6" y1="184.3" x2="913.6" y2="199.3"/>
			<line class="st11" x1="923.5" y1="184.3" x2="923.5" y2="199.3"/>
			<line class="st11" x1="933.3" y1="184.3" x2="933.3" y2="199.3"/>
			<line class="st11" x1="943.1" y1="184.3" x2="943.1" y2="199.3"/>
			<line class="st11" x1="953" y1="184.3" x2="953" y2="199.3"/>
			<line class="st11" x1="962.8" y1="184.3" x2="962.8" y2="199.3"/>
			<line class="st11" x1="972.6" y1="184.3" x2="972.6" y2="199.3"/>
			<line class="st11" x1="982.5" y1="184.3" x2="982.5" y2="199.3"/>
			<line class="st11" x1="992.3" y1="184.3" x2="992.3" y2="199.3"/>
			<line class="st11" x1="1002.2" y1="184.3" x2="1002.2" y2="199.3"/>
			<line class="st11" x1="1012" y1="184.3" x2="1012" y2="199.3"/>
			<line class="st11" x1="1021.8" y1="184.3" x2="1021.8" y2="199.3"/>
			<line class="st11" x1="1031.7" y1="184.3" x2="1031.7" y2="199.3"/>
			<line class="st11" x1="1041.5" y1="184.3" x2="1041.5" y2="199.3"/>
			<line class="st11" x1="1051.3" y1="184.3" x2="1051.3" y2="199.3"/>
			<line class="st11" x1="1061.2" y1="184.3" x2="1061.2" y2="199.3"/>
			<line class="st11" x1="1071" y1="184.3" x2="1071" y2="199.3"/>
			<line class="st11" x1="1080.9" y1="184.3" x2="1080.9" y2="199.3"/>
			<line class="st11" x1="1090.7" y1="184.3" x2="1090.7" y2="199.3"/>
			<line class="st11" x1="1100.5" y1="184.3" x2="1100.5" y2="199.3"/>
			<line class="st11" x1="1110.4" y1="184.3" x2="1110.4" y2="199.3"/>
			<line class="st11" x1="1120.2" y1="184.3" x2="1120.2" y2="199.3"/>
			<line class="st11" x1="1130" y1="184.3" x2="1130" y2="199.3"/>
			<line class="st11" x1="1139.9" y1="184.3" x2="1139.9" y2="199.3"/>
			<line class="st11" x1="1149.7" y1="184.3" x2="1149.7" y2="199.3"/>
			<line class="st11" x1="1159.6" y1="184.3" x2="1159.6" y2="199.3"/>
			<line class="st11" x1="1169.4" y1="184.3" x2="1169.4" y2="199.3"/>
			<line class="st11" x1="1179.2" y1="184.3" x2="1179.2" y2="199.3"/>
			<line class="st11" x1="1189.1" y1="184.3" x2="1189.1" y2="199.3"/>
			<line class="st11" x1="1198.9" y1="184.3" x2="1198.9" y2="199.3"/>
			<line class="st11" x1="1208.7" y1="184.3" x2="1208.7" y2="199.3"/>
			<line class="st11" x1="1218.6" y1="184.3" x2="1218.6" y2="199.3"/>
			<line class="st11" x1="1228.4" y1="184.3" x2="1228.4" y2="199.3"/>
			<line class="st11" x1="1238.3" y1="184.3" x2="1238.3" y2="199.3"/>
			<line class="st11" x1="1248.1" y1="184.3" x2="1248.1" y2="199.3"/>
			<line class="st11" x1="1257.9" y1="184.3" x2="1257.9" y2="199.3"/>
			<line class="st11" x1="1267.8" y1="184.3" x2="1267.8" y2="199.3"/>
			<line class="st11" x1="1277.6" y1="184.3" x2="1277.6" y2="199.3"/>
			<line class="st11" x1="1287.4" y1="184.3" x2="1287.4" y2="199.3"/>
			<line class="st11" x1="1297.3" y1="184.3" x2="1297.3" y2="199.3"/>
			<line class="st11" x1="1307.1" y1="184.3" x2="1307.1" y2="199.3"/>
			<line class="st11" x1="1317" y1="184.3" x2="1317" y2="199.3"/>
			<line class="st11" x1="1326.8" y1="184.3" x2="1326.8" y2="199.3"/>
			<line class="st11" x1="1336.6" y1="184.3" x2="1336.6" y2="199.3"/>
			<line class="st11" x1="1346.5" y1="184.3" x2="1346.5" y2="199.3"/>
			<line class="st11" x1="1356.3" y1="184.3" x2="1356.3" y2="199.3"/>
			<line class="st11" x1="1366.1" y1="184.3" x2="1366.1" y2="199.3"/>
			<line class="st11" x1="1376" y1="184.3" x2="1376" y2="199.3"/>
			<line class="st11" x1="1385.8" y1="184.3" x2="1385.8" y2="199.3"/>
			<line class="st11" x1="1395.7" y1="184.3" x2="1395.7" y2="199.3"/>
			<line class="st11" x1="1405.5" y1="184.3" x2="1405.5" y2="199.3"/>
			<line class="st11" x1="1415.3" y1="184.3" x2="1415.3" y2="199.3"/>
			<line class="st11" x1="1425.2" y1="184.3" x2="1425.2" y2="199.3"/>
			<line class="st11" x1="1435" y1="184.3" x2="1435" y2="199.3"/>
			<line class="st11" x1="1444.8" y1="184.3" x2="1444.8" y2="199.3"/>
			<line class="st11" x1="1454.7" y1="184.3" x2="1454.7" y2="199.3"/>
			<line class="st11" x1="1464.5" y1="184.3" x2="1464.5" y2="199.3"/>
			<line class="st11" x1="1474.4" y1="184.3" x2="1474.4" y2="199.3"/>
			<line class="st11" x1="1484.2" y1="184.3" x2="1484.2" y2="199.3"/>
			<line class="st11" x1="1494" y1="184.3" x2="1494" y2="199.3"/>
			<line class="st11" x1="1503.9" y1="184.3" x2="1503.9" y2="199.3"/>
			<line class="st11" x1="1513.7" y1="184.3" x2="1513.7" y2="199.3"/>
			<line class="st11" x1="1523.5" y1="184.3" x2="1523.5" y2="199.3"/>
			<line class="st11" x1="1533.4" y1="184.3" x2="1533.4" y2="199.3"/>
			<line class="st11" x1="1543.2" y1="184.3" x2="1543.2" y2="199.3"/>
			<line class="st11" x1="1553.1" y1="184.3" x2="1553.1" y2="199.3"/>
			<line class="st11" x1="1562.9" y1="184.3" x2="1562.9" y2="199.3"/>
			<line class="st11" x1="1572.7" y1="184.3" x2="1572.7" y2="199.3"/>
			<line class="st11" x1="1582.6" y1="184.3" x2="1582.6" y2="199.3"/>
			<line class="st11" x1="1592.4" y1="184.3" x2="1592.4" y2="199.3"/>
			<line class="st11" x1="1602.2" y1="184.3" x2="1602.2" y2="199.3"/>
			<line class="st11" x1="1612.1" y1="184.3" x2="1612.1" y2="199.3"/>
			<line class="st11" x1="1621.9" y1="184.3" x2="1621.9" y2="199.3"/>
			<line class="st11" x1="1631.8" y1="184.3" x2="1631.8" y2="199.3"/>
			<line class="st11" x1="1641.6" y1="184.3" x2="1641.6" y2="199.3"/>
			<line class="st11" x1="1651.4" y1="184.3" x2="1651.4" y2="199.3"/>
			<line class="st11" x1="1661.3" y1="184.3" x2="1661.3" y2="199.3"/>
			<line class="st11" x1="1671.1" y1="184.3" x2="1671.1" y2="199.3"/>
			<line class="st11" x1="1680.9" y1="184.3" x2="1680.9" y2="199.3"/>
			<line class="st11" x1="1690.8" y1="184.3" x2="1690.8" y2="199.3"/>
			<line class="st11" x1="1700.6" y1="184.3" x2="1700.6" y2="199.3"/>
			<line class="st11" x1="1710.5" y1="184.3" x2="1710.5" y2="199.3"/>
			<line class="st11" x1="1720.3" y1="184.3" x2="1720.3" y2="199.3"/>
			<line class="st11" x1="1730.1" y1="184.3" x2="1730.1" y2="199.3"/>
			<line class="st11" x1="1740" y1="184.3" x2="1740" y2="199.3"/>
			<line class="st11" x1="1749.8" y1="184.3" x2="1749.8" y2="199.3"/>
			<line class="st11" x1="1759.6" y1="184.3" x2="1759.6" y2="199.3"/>
			<line class="st11" x1="1769.5" y1="184.3" x2="1769.5" y2="199.3"/>
			<line class="st11" x1="1779.3" y1="184.3" x2="1779.3" y2="199.3"/>
			<line class="st11" x1="1789.2" y1="184.3" x2="1789.2" y2="199.3"/>
			<line class="st11" x1="1799" y1="184.3" x2="1799" y2="199.3"/>
			<line class="st11" x1="1808.8" y1="184.3" x2="1808.8" y2="199.3"/>
			<line class="st11" x1="1818.7" y1="184.3" x2="1818.7" y2="199.3"/>
			<line class="st11" x1="1828.5" y1="184.3" x2="1828.5" y2="199.3"/>
			<line class="st11" x1="1838.3" y1="184.3" x2="1838.3" y2="199.3"/>
			<line class="st11" x1="1848.2" y1="184.3" x2="1848.2" y2="199.3"/>
			<line class="st11" x1="1858" y1="184.3" x2="1858" y2="199.3"/>
			<line class="st11" x1="1867.9" y1="184.3" x2="1867.9" y2="199.3"/>
			<line class="st11" x1="1877.7" y1="184.3" x2="1877.7" y2="199.3"/>
			<line class="st11" x1="1887.5" y1="184.3" x2="1887.5" y2="199.3"/>
			<line class="st11" x1="1897.4" y1="184.3" x2="1897.4" y2="199.3"/>
			<line class="st11" x1="1907.2" y1="184.3" x2="1907.2" y2="199.3"/>
			<line class="st11" x1="1917" y1="184.3" x2="1917" y2="199.3"/>
			<line class="st11" x1="1926.9" y1="184.3" x2="1926.9" y2="199.3"/>
			<line class="st11" x1="1936.7" y1="184.3" x2="1936.7" y2="199.3"/>
			<line class="st11" x1="1946.6" y1="184.3" x2="1946.6" y2="199.3"/>
			<line class="st11" x1="1956.4" y1="184.3" x2="1956.4" y2="199.3"/>
			<line class="st11" x1="1966.2" y1="184.3" x2="1966.2" y2="199.3"/>
			<line class="st11" x1="1976.1" y1="184.3" x2="1976.1" y2="199.3"/>
			<line class="st11" x1="1985.9" y1="184.3" x2="1985.9" y2="199.3"/>
			<line class="st11" x1="1995.7" y1="184.3" x2="1995.7" y2="199.3"/>
			<line class="st11" x1="2005.6" y1="184.3" x2="2005.6" y2="199.3"/>
			<line class="st11" x1="2015.4" y1="184.3" x2="2015.4" y2="199.3"/>
			<line class="st11" x1="2025.3" y1="184.3" x2="2025.3" y2="199.3"/>
			<line class="st11" x1="2035.1" y1="184.3" x2="2035.1" y2="199.3"/>
			<line class="st11" x1="2044.9" y1="184.3" x2="2044.9" y2="199.3"/>
			<line class="st11" x1="2054.8" y1="184.3" x2="2054.8" y2="199.3"/>
			<line class="st11" x1="2064.6" y1="184.3" x2="2064.6" y2="199.3"/>
			<line class="st11" x1="2074.4" y1="184.3" x2="2074.4" y2="199.3"/>
			<line class="st11" x1="2084.3" y1="184.3" x2="2084.3" y2="199.3"/>
			<line class="st11" x1="2094.1" y1="184.3" x2="2094.1" y2="199.3"/>
			<line class="st11" x1="2104" y1="184.3" x2="2104" y2="199.3"/>
			<line class="st11" x1="2113.8" y1="184.3" x2="2113.8" y2="199.3"/>
			<line class="st11" x1="2123.6" y1="184.3" x2="2123.6" y2="199.3"/>
			<line class="st11" x1="2133.5" y1="184.3" x2="2133.5" y2="199.3"/>
			<line class="st11" x1="2143.3" y1="184.3" x2="2143.3" y2="199.3"/>
			<line class="st11" x1="2153.1" y1="184.3" x2="2153.1" y2="199.3"/>
			<line class="st11" x1="2163" y1="184.3" x2="2163" y2="199.3"/>
			<line class="st11" x1="2172.8" y1="184.3" x2="2172.8" y2="199.3"/>
			<line class="st11" x1="2182.7" y1="184.3" x2="2182.7" y2="199.3"/>
			<line class="st11" x1="2192.5" y1="184.3" x2="2192.5" y2="199.3"/>
			<line class="st11" x1="2202.3" y1="184.3" x2="2202.3" y2="199.3"/>
			<line class="st11" x1="2212.2" y1="184.3" x2="2212.2" y2="199.3"/>
			<line class="st11" x1="2222" y1="184.3" x2="2222" y2="199.3"/>
			<line class="st11" x1="2231.8" y1="184.3" x2="2231.8" y2="199.3"/>
			<line class="st11" x1="2241.7" y1="184.3" x2="2241.7" y2="199.3"/>
			<line class="st11" x1="2251.5" y1="184.3" x2="2251.5" y2="199.3"/>
			<line class="st11" x1="2261.4" y1="184.3" x2="2261.4" y2="199.3"/>
			<line class="st11" x1="2271.2" y1="184.3" x2="2271.2" y2="199.3"/>
			<line class="st11" x1="2281" y1="184.3" x2="2281" y2="199.3"/>
			<line class="st11" x1="2290.9" y1="184.3" x2="2290.9" y2="199.3"/>
			<line class="st11" x1="2300.7" y1="184.3" x2="2300.7" y2="199.3"/>
			<line class="st11" x1="2310.5" y1="184.3" x2="2310.5" y2="199.3"/>
			<line class="st11" x1="2320.4" y1="184.3" x2="2320.4" y2="199.3"/>
			<line class="st11" x1="2330.2" y1="184.3" x2="2330.2" y2="199.3"/>
			<line class="st11" x1="2340.1" y1="184.3" x2="2340.1" y2="199.3"/>
			<line class="st11" x1="2349.9" y1="184.3" x2="2349.9" y2="199.3"/>
			<line class="st11" x1="2359.7" y1="184.3" x2="2359.7" y2="199.3"/>
			<line class="st11" x1="2369.6" y1="184.3" x2="2369.6" y2="199.3"/>
			<line class="st11" x1="2379.4" y1="184.3" x2="2379.4" y2="199.3"/>
			<line class="st11" x1="2389.2" y1="184.3" x2="2389.2" y2="199.3"/>
			<line class="st11" x1="2399.1" y1="184.3" x2="2399.1" y2="199.3"/>
			<line class="st11" x1="2408.9" y1="184.3" x2="2408.9" y2="199.3"/>
			<line class="st11" x1="2418.8" y1="184.3" x2="2418.8" y2="199.3"/>
			<line class="st11" x1="2428.6" y1="184.3" x2="2428.6" y2="199.3"/>
			<line class="st11" x1="2438.4" y1="184.3" x2="2438.4" y2="199.3"/>
			<line class="st11" x1="2448.3" y1="184.3" x2="2448.3" y2="199.3"/>
			<line class="st11" x1="2458.1" y1="184.3" x2="2458.1" y2="199.3"/>
			<line class="st11" x1="2467.9" y1="184.3" x2="2467.9" y2="199.3"/>
			<line class="st11" x1="2477.8" y1="184.3" x2="2477.8" y2="199.3"/>
			<line class="st11" x1="2487.6" y1="184.3" x2="2487.6" y2="199.3"/>
			<line class="st11" x1="2497.5" y1="184.3" x2="2497.5" y2="199.3"/>
			<line class="st11" x1="2507.3" y1="184.3" x2="2507.3" y2="199.3"/>
			<line class="st11" x1="2517.1" y1="184.3" x2="2517.1" y2="199.3"/>
			<line class="st11" x1="2527" y1="184.3" x2="2527" y2="199.3"/>
			<line class="st11" x1="2536.8" y1="184.3" x2="2536.8" y2="199.3"/>
			<line class="st11" x1="2546.6" y1="184.3" x2="2546.6" y2="199.3"/>
			<line class="st11" x1="2556.5" y1="184.3" x2="2556.5" y2="199.3"/>
			<line class="st11" x1="2566.3" y1="184.3" x2="2566.3" y2="199.3"/>
			<line class="st11" x1="2576.2" y1="184.3" x2="2576.2" y2="199.3"/>
			<line class="st11" x1="2586" y1="184.3" x2="2586" y2="199.3"/>
			<line class="st11" x1="2595.8" y1="184.3" x2="2595.8" y2="199.3"/>
			<line class="st11" x1="2605.7" y1="184.3" x2="2605.7" y2="199.3"/>
			<line class="st11" x1="2615.5" y1="184.3" x2="2615.5" y2="199.3"/>
			<line class="st11" x1="2625.3" y1="184.3" x2="2625.3" y2="199.3"/>
			<line class="st11" x1="2635.2" y1="184.3" x2="2635.2" y2="199.3"/>
			<line class="st11" x1="2645" y1="184.3" x2="2645" y2="199.3"/>
			<line class="st11" x1="2654.9" y1="184.3" x2="2654.9" y2="199.3"/>
			<line class="st11" x1="2664.7" y1="184.3" x2="2664.7" y2="199.3"/>
			<line class="st11" x1="2674.5" y1="184.3" x2="2674.5" y2="199.3"/>
			<line class="st11" x1="2684.4" y1="184.3" x2="2684.4" y2="199.3"/>
			<line class="st11" x1="2694.2" y1="184.3" x2="2694.2" y2="199.3"/>
			<line class="st11" x1="2704.1" y1="184.3" x2="2704.1" y2="199.3"/>
			<line class="st11" x1="2713.9" y1="184.3" x2="2713.9" y2="199.3"/>
			<line class="st11" x1="2723.7" y1="184.3" x2="2723.7" y2="199.3"/>
			<line class="st11" x1="2733.6" y1="184.3" x2="2733.6" y2="199.3"/>
			<line class="st11" x1="2743.4" y1="184.3" x2="2743.4" y2="199.3"/>
			<line class="st11" x1="2753.2" y1="184.3" x2="2753.2" y2="199.3"/>
			<line class="st11" x1="2763.1" y1="184.3" x2="2763.1" y2="199.3"/>
			<line class="st11" x1="2772.9" y1="184.3" x2="2772.9" y2="199.3"/>
			<line class="st11" x1="2782.8" y1="184.3" x2="2782.8" y2="199.3"/>
			<line class="st11" x1="2792.6" y1="184.3" x2="2792.6" y2="199.3"/>
			<line class="st11" x1="2802.4" y1="184.3" x2="2802.4" y2="199.3"/>
			<line class="st11" x1="2812.3" y1="184.3" x2="2812.3" y2="199.3"/>
			<line class="st11" x1="2822.1" y1="184.3" x2="2822.1" y2="199.3"/>
			<line class="st11" x1="2831.9" y1="184.3" x2="2831.9" y2="199.3"/>
			<line class="st11" x1="2841.8" y1="184.3" x2="2841.8" y2="199.3"/>
			<line class="st11" x1="2851.6" y1="184.3" x2="2851.6" y2="199.3"/>
			<line class="st11" x1="2861.5" y1="184.3" x2="2861.5" y2="199.3"/>
			<line class="st11" x1="2871.3" y1="184.3" x2="2871.3" y2="199.3"/>
			<line class="st11" x1="2881.1" y1="184.3" x2="2881.1" y2="199.3"/>
			<line class="st11" x1="2891" y1="184.3" x2="2891" y2="199.3"/>
			<line class="st11" x1="2900.8" y1="184.3" x2="2900.8" y2="199.3"/>
			<line class="st11" x1="2910.6" y1="184.3" x2="2910.6" y2="199.3"/>
			<line class="st11" x1="2920.5" y1="184.3" x2="2920.5" y2="199.3"/>
			<line class="st11" x1="2930.3" y1="184.3" x2="2930.3" y2="199.3"/>
			<line class="st11" x1="2940.2" y1="184.3" x2="2940.2" y2="199.3"/>
			<line class="st11" x1="2950" y1="184.3" x2="2950" y2="199.3"/>
			<line class="st11" x1="2959.8" y1="184.3" x2="2959.8" y2="199.3"/>
			<line class="st11" x1="2969.7" y1="184.3" x2="2969.7" y2="199.3"/>
			<line class="st11" x1="2979.5" y1="184.3" x2="2979.5" y2="199.3"/>
			<line class="st11" x1="2989.3" y1="184.3" x2="2989.3" y2="199.3"/>
			<line class="st11" x1="2999.2" y1="184.3" x2="2999.2" y2="199.3"/>
			<line class="st11" x1="3009" y1="184.3" x2="3009" y2="199.3"/>
			<line class="st11" x1="3018.9" y1="184.3" x2="3018.9" y2="199.3"/>
			<line class="st11" x1="3028.7" y1="184.3" x2="3028.7" y2="199.3"/>
			<line class="st11" x1="3038.5" y1="184.3" x2="3038.5" y2="199.3"/>
			<line class="st11" x1="3048.4" y1="184.3" x2="3048.4" y2="199.3"/>
			<line class="st11" x1="3058.2" y1="184.3" x2="3058.2" y2="199.3"/>
			<line class="st11" x1="3068" y1="184.3" x2="3068" y2="199.3"/>
			<line class="st11" x1="3077.9" y1="184.3" x2="3077.9" y2="199.3"/>
			<line class="st11" x1="3087.7" y1="184.3" x2="3087.7" y2="199.3"/>
			<line class="st11" x1="3097.6" y1="184.3" x2="3097.6" y2="199.3"/>
			<line class="st11" x1="3107.4" y1="184.3" x2="3107.4" y2="199.3"/>
			<line class="st11" x1="3117.2" y1="184.3" x2="3117.2" y2="199.3"/>
			<line class="st11" x1="3127.1" y1="184.3" x2="3127.1" y2="199.3"/>
			<line class="st11" x1="3136.9" y1="184.3" x2="3136.9" y2="199.3"/>
			<line class="st11" x1="3146.7" y1="184.3" x2="3146.7" y2="199.3"/>
			<line class="st11" x1="3156.6" y1="184.3" x2="3156.6" y2="199.3"/>
			<line class="st11" x1="3166.4" y1="184.3" x2="3166.4" y2="199.3"/>
			<line class="st11" x1="3176.3" y1="184.3" x2="3176.3" y2="199.3"/>
			<line class="st11" x1="3186.1" y1="184.3" x2="3186.1" y2="199.3"/>
			<line class="st11" x1="3195.9" y1="184.3" x2="3195.9" y2="199.3"/>
			<line class="st11" x1="3205.8" y1="184.3" x2="3205.8" y2="199.3"/>
			<line class="st11" x1="3215.6" y1="184.3" x2="3215.6" y2="199.3"/>
			<line class="st11" x1="3225.4" y1="184.3" x2="3225.4" y2="199.3"/>
			<line class="st11" x1="3235.3" y1="184.3" x2="3235.3" y2="199.3"/>
			<line class="st11" x1="3245.1" y1="184.3" x2="3245.1" y2="199.3"/>
			<line class="st11" x1="3255" y1="184.3" x2="3255" y2="199.3"/>
			<line class="st11" x1="3264.8" y1="184.3" x2="3264.8" y2="199.3"/>
			<line class="st11" x1="3274.6" y1="184.3" x2="3274.6" y2="199.3"/>
			<line class="st11" x1="3284.5" y1="184.3" x2="3284.5" y2="199.3"/>
			<line class="st11" x1="3294.3" y1="184.3" x2="3294.3" y2="199.3"/>
			<line class="st11" x1="3304.1" y1="184.3" x2="3304.1" y2="199.3"/>
			<line class="st11" x1="3314" y1="184.3" x2="3314" y2="199.3"/>
			<line class="st11" x1="3323.8" y1="184.3" x2="3323.8" y2="199.3"/>
			<line class="st11" x1="3333.7" y1="184.3" x2="3333.7" y2="199.3"/>
			<line class="st11" x1="3343.5" y1="184.3" x2="3343.5" y2="199.3"/>
			<line class="st11" x1="3353.3" y1="184.3" x2="3353.3" y2="199.3"/>
			<line class="st11" x1="3363.2" y1="184.3" x2="3363.2" y2="199.3"/>
			<line class="st11" x1="3373" y1="184.3" x2="3373" y2="199.3"/>
			<line class="st11" x1="3382.8" y1="184.3" x2="3382.8" y2="199.3"/>
			<line class="st11" x1="3392.7" y1="184.3" x2="3392.7" y2="199.3"/>
			<line class="st11" x1="3402.5" y1="184.3" x2="3402.5" y2="199.3"/>
			<line class="st11" x1="3412.4" y1="184.3" x2="3412.4" y2="199.3"/>
			<line class="st11" x1="3422.2" y1="184.3" x2="3422.2" y2="199.3"/>
			<line class="st11" x1="3432" y1="184.3" x2="3432" y2="199.3"/>
		</g>
		<line class="st10" x1="87.3" y1="179.5" x2="87.3" y2="199.5"/>
		<line class="st10" x1="3432" y1="178" x2="3432" y2="198.5"/>
	</g>
</g>
</svg>
