<?xml version="1.0" encoding="utf-8"?>
<!-- Generator: Adobe Illustrator 28.0.0, SVG Export Plug-In . SVG Version: 6.00 Build 0)  -->
<svg version="1.1" xmlns="http://www.w3.org/2000/svg" xmlns:xlink="http://www.w3.org/1999/xlink" x="0px" y="0px"
	 viewBox="0 0 3439.7 311.8" style="enable-background:new 0 0 3439.7 311.8;" xml:space="preserve">
<style type="text/css">
	.st0{display:none;}
	.st1{display:inline;fill:none;stroke:#808080;stroke-width:4;stroke-miterlimit:10;}
	.st2{display:inline;}
	.st3{fill:#B3B3B3;}
	.st4{display:inline;opacity:0.7;}
	.st5{fill:none;stroke:#808080;stroke-width:6;stroke-linecap:square;stroke-miterlimit:10;}
	.st6{fill:none;stroke:#808080;stroke-width:5.5391;stroke-miterlimit:10;}
	.st7{fill:none;stroke:#808080;stroke-width:4.6188;stroke-miterlimit:10;}
	.st8{fill:none;stroke:#808080;stroke-miterlimit:10;}
	.st9{fill:#B56E09;}
	.st10{fill:none;stroke:#B56E09;stroke-width:4;stroke-miterlimit:10;}
	.st11{fill:none;stroke:#B56E09;stroke-width:6;stroke-linecap:square;stroke-miterlimit:10;}
	.st12{fill:none;stroke:#B56E09;stroke-width:5.5391;stroke-miterlimit:10;}
	.st13{fill:none;stroke:#B56E09;stroke-width:4.6188;stroke-miterlimit:10;}
	.st14{fill:none;stroke:#B56E09;stroke-miterlimit:10;}
</style>
<g id="Layer_1" class="st0">
	<line class="st1" x1="0" y1="199.1" x2="3439.7" y2="199.1"/>
	<g class="st2">
		<g>
			<path class="st3" d="M586.5,152.8h6.1v-20.4l-6.3,2.9l-0.5-1.5l7.1-3.8h2.7v22.9h5.8v1.6h-14.9V152.8z"/>
			<path class="st3" d="M620.8,132.9h-12.2v4.1h-1.8v-7h16.1v2.1l-9.4,22.3H611L620.8,132.9z"/>
			<path class="st3" d="M634.9,154.8c-1.1,0-2-0.1-2.9-0.4c-0.9-0.3-1.6-0.6-2.2-1c-0.6-0.4-1.1-0.9-1.4-1.4c-0.3-0.5-0.5-1-0.5-1.6
				c0-0.7,0.2-1.3,0.6-1.7c0.4-0.4,0.9-0.6,1.5-0.6s1.1,0.2,1.5,0.6c0.4,0.4,0.6,0.9,0.6,1.5c0,0.5-0.1,0.9-0.4,1.2
				c-0.2,0.3-0.5,0.6-0.9,0.7v0.1c0.4,0.2,0.9,0.4,1.6,0.6c0.6,0.1,1.4,0.2,2.3,0.2c2,0,3.4-0.5,4.4-1.4c1-1,1.4-2.3,1.4-3.9V147
				c0-1.7-0.4-3-1.3-4c-0.9-1-2.2-1.5-3.9-1.5c-1.1,0-2,0.2-2.7,0.7c-0.7,0.5-1.3,1-1.7,1.6l-1.9-0.4l0.9-13.4h12.8v2.9h-11.4
				l-0.7,9.6l0.1,0c0.5-0.8,1.2-1.6,2.1-2.2c0.9-0.6,2-0.9,3.4-0.9c1.1,0,2.1,0.2,3,0.5s1.7,0.8,2.4,1.5c0.7,0.7,1.2,1.5,1.6,2.4
				c0.4,1,0.6,2.1,0.6,3.4c0,1.1-0.2,2.2-0.6,3.1c-0.4,0.9-1,1.8-1.8,2.4c-0.8,0.7-1.7,1.2-2.8,1.6
				C637.4,154.6,636.2,154.8,634.9,154.8z"/>
			<path class="st3" d="M656.9,154.8c-2.8,0-5-1.1-6.5-3.2c-1.5-2.1-2.3-5.3-2.3-9.4c0-4.1,0.8-7.3,2.3-9.4s3.7-3.2,6.5-3.2
				s5,1.1,6.5,3.2s2.3,5.3,2.3,9.4c0,4.1-0.8,7.3-2.3,9.4C661.9,153.7,659.7,154.8,656.9,154.8z M656.9,153.1c1,0,1.8-0.2,2.5-0.6
				c0.7-0.4,1.2-0.9,1.7-1.7c0.4-0.7,0.7-1.6,0.9-2.6s0.3-2.2,0.3-3.5v-5.1c0-1.3-0.1-2.4-0.3-3.5c-0.2-1-0.5-1.9-0.9-2.6
				c-0.4-0.7-1-1.3-1.7-1.7c-0.7-0.4-1.5-0.6-2.5-0.6s-1.8,0.2-2.5,0.6c-0.7,0.4-1.2,0.9-1.7,1.7c-0.4,0.7-0.7,1.6-0.9,2.6
				c-0.2,1-0.3,2.2-0.3,3.5v5.1c0,1.3,0.1,2.4,0.3,3.5c0.2,1,0.5,1.9,0.9,2.6c0.4,0.7,1,1.3,1.7,1.7
				C655.1,152.9,655.9,153.1,656.9,153.1z"/>
			<path class="st3" d="M677.3,152.8h2.6v-14.9h-2.6v-1.6h14.1v5.3h-2.1V138h-6.5v14.7h3.3v1.6h-8.8V152.8z"/>
			<path class="st3" d="M693.6,154.8c-0.7,0-1.2-0.2-1.6-0.6c-0.4-0.4-0.6-0.9-0.6-1.5v-0.2c0-0.6,0.2-1.1,0.6-1.5
				c0.4-0.4,0.9-0.6,1.6-0.6s1.2,0.2,1.6,0.6c0.4,0.4,0.6,0.9,0.6,1.5v0.2c0,0.6-0.2,1.1-0.6,1.5
				C694.8,154.6,694.3,154.8,693.6,154.8z"/>
		</g>
	</g>
	<g class="st4">
		<g>
			<g>
				<path class="st3" d="M1054.1,152.1h8.6v-29.2l-9,4.1l-0.8-2.1l10.2-5.5h3.9v32.6h8.4v2.2h-21.3V152.1z"/>
				<path class="st3" d="M1094.7,155c-1.9,0-3.6-0.2-5.1-0.7c-1.5-0.5-2.7-1.2-3.8-2c-1-0.9-1.8-1.9-2.3-3.1c-0.6-1.2-0.8-2.6-0.8-4
					c0-1.3,0.2-2.4,0.7-3.4c0.5-1,1.1-1.9,1.8-2.6s1.6-1.3,2.6-1.8c1-0.5,2-0.8,3-1V136c-0.9-0.1-1.8-0.4-2.6-0.9
					c-0.9-0.5-1.6-1.1-2.2-1.8c-0.6-0.7-1.2-1.6-1.6-2.5c-0.4-0.9-0.6-1.9-0.6-3c0-1.4,0.3-2.6,0.8-3.7c0.5-1.1,1.3-2,2.2-2.8
					c1-0.8,2.1-1.4,3.4-1.8c1.3-0.4,2.8-0.6,4.5-0.6c1.6,0,3.1,0.2,4.5,0.6c1.3,0.4,2.5,1,3.4,1.8c1,0.8,1.7,1.7,2.2,2.8
					c0.5,1.1,0.8,2.3,0.8,3.7c0,1.1-0.2,2.1-0.6,3c-0.4,0.9-0.9,1.8-1.6,2.5c-0.6,0.7-1.4,1.3-2.2,1.8c-0.9,0.5-1.7,0.8-2.6,0.9v0.3
					c1,0.2,2,0.5,3,1c1,0.5,1.8,1.1,2.6,1.8s1.4,1.6,1.8,2.6c0.5,1,0.7,2.2,0.7,3.4c0,1.5-0.3,2.8-0.8,4c-0.5,1.2-1.3,2.3-2.3,3.1
					c-1,0.9-2.3,1.5-3.8,2C1098.3,154.7,1096.6,155,1094.7,155z M1094.7,152.6c1.2,0,2.3-0.2,3.2-0.5c0.9-0.4,1.7-0.9,2.3-1.5
					c0.6-0.7,1.1-1.4,1.4-2.3c0.3-0.9,0.5-1.8,0.5-2.8v-1.1c0-1-0.2-1.9-0.5-2.8c-0.3-0.9-0.8-1.7-1.4-2.3c-0.6-0.6-1.4-1.2-2.3-1.5
					c-0.9-0.4-2-0.5-3.2-0.5s-2.3,0.2-3.2,0.5c-0.9,0.4-1.7,0.9-2.3,1.5c-0.6,0.7-1.1,1.4-1.4,2.3c-0.3,0.9-0.5,1.8-0.5,2.8v1.1
					c0,1,0.2,1.9,0.5,2.8c0.3,0.9,0.8,1.7,1.4,2.3c0.6,0.6,1.4,1.2,2.3,1.5C1092.4,152.4,1093.5,152.6,1094.7,152.6z M1094.7,134.9
					c1.1,0,2-0.2,2.9-0.6c0.8-0.4,1.5-0.8,2-1.4c0.5-0.6,0.9-1.3,1.2-2.1s0.4-1.6,0.4-2.5v-0.7c0-0.9-0.1-1.7-0.4-2.5
					c-0.2-0.8-0.6-1.5-1.2-2.1c-0.5-0.6-1.2-1.1-2-1.4c-0.8-0.4-1.8-0.6-2.9-0.6s-2,0.2-2.9,0.6c-0.8,0.4-1.5,0.8-2,1.4
					c-0.5,0.6-0.9,1.3-1.2,2.1c-0.2,0.8-0.4,1.6-0.4,2.5v0.7c0,0.9,0.1,1.7,0.4,2.5s0.6,1.5,1.2,2.1c0.5,0.6,1.2,1.1,2,1.4
					C1092.6,134.7,1093.6,134.9,1094.7,134.9z"/>
				<path class="st3" d="M1124.7,155c-4,0-7.1-1.5-9.2-4.6c-2.1-3.1-3.2-7.5-3.2-13.4c0-5.9,1.1-10.4,3.2-13.5
					c2.1-3.1,5.2-4.6,9.2-4.6s7.1,1.5,9.2,4.6c2.1,3.1,3.2,7.5,3.2,13.5c0,5.9-1.1,10.4-3.2,13.4
					C1131.8,153.4,1128.7,155,1124.7,155z M1124.7,152.5c1.4,0,2.6-0.3,3.6-0.8c1-0.5,1.8-1.3,2.4-2.4c0.6-1,1.1-2.3,1.4-3.8
					c0.3-1.5,0.4-3.1,0.4-5v-7.3c0-1.8-0.1-3.5-0.4-5c-0.3-1.5-0.7-2.7-1.4-3.8c-0.6-1-1.4-1.8-2.4-2.4c-1-0.5-2.2-0.8-3.6-0.8
					s-2.6,0.3-3.6,0.8c-1,0.5-1.8,1.3-2.4,2.4c-0.6,1-1.1,2.3-1.4,3.8c-0.3,1.5-0.4,3.1-0.4,5v7.3c0,1.8,0.1,3.5,0.4,5
					s0.7,2.7,1.4,3.8c0.6,1,1.4,1.8,2.4,2.4C1122.1,152.2,1123.3,152.5,1124.7,152.5z"/>
				<path class="st3" d="M1154.7,155c-4,0-7.1-1.5-9.2-4.6c-2.1-3.1-3.2-7.5-3.2-13.4c0-5.9,1.1-10.4,3.2-13.5
					c2.1-3.1,5.2-4.6,9.2-4.6s7.1,1.5,9.2,4.6c2.1,3.1,3.2,7.5,3.2,13.5c0,5.9-1.1,10.4-3.2,13.4
					C1161.8,153.4,1158.7,155,1154.7,155z M1154.7,152.5c1.4,0,2.6-0.3,3.6-0.8c1-0.5,1.8-1.3,2.4-2.4c0.6-1,1.1-2.3,1.4-3.8
					c0.3-1.5,0.4-3.1,0.4-5v-7.3c0-1.8-0.1-3.5-0.4-5c-0.3-1.5-0.7-2.7-1.4-3.8c-0.6-1-1.4-1.8-2.4-2.4c-1-0.5-2.2-0.8-3.6-0.8
					s-2.6,0.3-3.6,0.8c-1,0.5-1.8,1.3-2.4,2.4c-0.6,1-1.1,2.3-1.4,3.8c-0.3,1.5-0.4,3.1-0.4,5v7.3c0,1.8,0.1,3.5,0.4,5
					s0.7,2.7,1.4,3.8c0.6,1,1.4,1.8,2.4,2.4C1152.1,152.2,1153.3,152.5,1154.7,152.5z"/>
				<path class="st3" d="M1183.8,152.1h3.7v-21.2h-3.7v-2.2h20.1v7.6h-3V131h-9.4v21h4.7v2.3h-12.5V152.1z"/>
				<path class="st3" d="M1207.1,155c-1,0-1.7-0.3-2.3-0.9c-0.5-0.6-0.8-1.3-0.8-2.1v-0.3c0-0.8,0.3-1.5,0.8-2.1
					c0.6-0.6,1.3-0.9,2.3-0.9c1,0,1.7,0.3,2.3,0.9c0.5,0.6,0.8,1.3,0.8,2.1v0.3c0,0.8-0.3,1.5-0.8,2.1
					C1208.9,154.7,1208.1,155,1207.1,155z"/>
			</g>
		</g>
		<g>
			<g>
				<path class="st3" d="M1570.3,152.8h6.1v-20.4l-6.3,2.9l-0.5-1.5l7.1-3.8h2.7v22.9h5.8v1.6h-14.9V152.8z"/>
				<path class="st3" d="M1598.7,154.8c-1.3,0-2.5-0.2-3.6-0.5s-1.9-0.8-2.6-1.4c-0.7-0.6-1.3-1.3-1.6-2.2c-0.4-0.9-0.6-1.8-0.6-2.8
					c0-0.9,0.2-1.7,0.5-2.4c0.3-0.7,0.8-1.3,1.3-1.8c0.5-0.5,1.1-0.9,1.8-1.2c0.7-0.3,1.4-0.5,2.1-0.7v-0.2
					c-0.6-0.1-1.2-0.3-1.8-0.6c-0.6-0.3-1.1-0.7-1.6-1.3c-0.5-0.5-0.8-1.1-1.1-1.8c-0.3-0.7-0.4-1.4-0.4-2.1c0-1,0.2-1.8,0.6-2.6
					c0.4-0.8,0.9-1.4,1.6-2c0.7-0.5,1.5-1,2.4-1.2c0.9-0.3,2-0.4,3.1-0.4c1.1,0,2.2,0.1,3.1,0.4c0.9,0.3,1.7,0.7,2.4,1.2
					c0.7,0.5,1.2,1.2,1.6,2c0.4,0.8,0.6,1.6,0.6,2.6c0,0.7-0.1,1.4-0.4,2.1c-0.3,0.7-0.6,1.2-1.1,1.8c-0.5,0.5-1,0.9-1.6,1.3
					c-0.6,0.3-1.2,0.5-1.8,0.6v0.2c0.7,0.1,1.4,0.3,2.1,0.7c0.7,0.3,1.3,0.7,1.8,1.2c0.5,0.5,1,1.1,1.3,1.8c0.3,0.7,0.5,1.5,0.5,2.4
					c0,1-0.2,2-0.6,2.8c-0.4,0.9-0.9,1.6-1.6,2.2c-0.7,0.6-1.6,1.1-2.6,1.4C1601.2,154.6,1600,154.8,1598.7,154.8z M1598.7,153.2
					c0.8,0,1.6-0.1,2.2-0.4c0.7-0.3,1.2-0.6,1.6-1.1c0.4-0.5,0.8-1,1-1.6c0.2-0.6,0.3-1.3,0.3-2v-0.7c0-0.7-0.1-1.4-0.3-2
					c-0.2-0.6-0.6-1.2-1-1.6c-0.4-0.5-1-0.8-1.6-1.1c-0.7-0.3-1.4-0.4-2.2-0.4s-1.6,0.1-2.2,0.4s-1.2,0.6-1.6,1.1s-0.8,1-1,1.6
					s-0.3,1.3-0.3,2v0.7c0,0.7,0.1,1.4,0.3,2c0.2,0.6,0.6,1.2,1,1.6s1,0.8,1.6,1.1S1597.8,153.2,1598.7,153.2z M1598.7,140.8
					c0.8,0,1.4-0.1,2-0.4c0.6-0.3,1-0.6,1.4-1c0.4-0.4,0.6-0.9,0.8-1.5c0.2-0.5,0.3-1.1,0.3-1.7v-0.5c0-0.6-0.1-1.2-0.3-1.7
					c-0.2-0.5-0.4-1-0.8-1.5c-0.4-0.4-0.8-0.8-1.4-1s-1.2-0.4-2-0.4s-1.4,0.1-2,0.4s-1,0.6-1.4,1c-0.4,0.4-0.6,0.9-0.8,1.5
					c-0.2,0.5-0.3,1.1-0.3,1.7v0.5c0,0.6,0.1,1.2,0.3,1.7c0.2,0.5,0.4,1,0.8,1.5c0.4,0.4,0.8,0.8,1.4,1
					C1597.2,140.6,1597.9,140.8,1598.7,140.8z"/>
				<path class="st3" d="M1618.6,154.8c-1.1,0-2-0.1-2.9-0.4c-0.9-0.3-1.6-0.6-2.2-1c-0.6-0.4-1.1-0.9-1.4-1.4
					c-0.3-0.5-0.5-1-0.5-1.6c0-0.7,0.2-1.3,0.6-1.7c0.4-0.4,0.9-0.6,1.5-0.6s1.1,0.2,1.5,0.6c0.4,0.4,0.6,0.9,0.6,1.5
					c0,0.5-0.1,0.9-0.4,1.2c-0.2,0.3-0.5,0.6-0.9,0.7v0.1c0.4,0.2,0.9,0.4,1.6,0.6c0.6,0.1,1.4,0.2,2.3,0.2c2,0,3.4-0.5,4.4-1.4
					c1-1,1.4-2.3,1.4-3.9V147c0-1.7-0.4-3-1.3-4c-0.9-1-2.2-1.5-3.9-1.5c-1.1,0-2,0.2-2.7,0.7c-0.7,0.5-1.3,1-1.7,1.6l-1.9-0.4
					l0.9-13.4h12.8v2.9H1615l-0.7,9.6l0.1,0c0.5-0.8,1.2-1.6,2.1-2.2c0.9-0.6,2-0.9,3.4-0.9c1.1,0,2.1,0.2,3,0.5s1.7,0.8,2.4,1.5
					c0.7,0.7,1.2,1.5,1.6,2.4c0.4,1,0.6,2.1,0.6,3.4c0,1.1-0.2,2.2-0.6,3.1c-0.4,0.9-1,1.8-1.8,2.4c-0.8,0.7-1.7,1.2-2.8,1.6
					C1621.2,154.6,1620,154.8,1618.6,154.8z"/>
				<path class="st3" d="M1640.7,154.8c-2.8,0-5-1.1-6.5-3.2c-1.5-2.1-2.3-5.3-2.3-9.4c0-4.1,0.8-7.3,2.3-9.4s3.7-3.2,6.5-3.2
					s5,1.1,6.5,3.2s2.3,5.3,2.3,9.4c0,4.1-0.8,7.3-2.3,9.4C1645.6,153.7,1643.5,154.8,1640.7,154.8z M1640.7,153.1
					c1,0,1.8-0.2,2.5-0.6s1.2-0.9,1.7-1.7c0.4-0.7,0.7-1.6,0.9-2.6s0.3-2.2,0.3-3.5v-5.1c0-1.3-0.1-2.4-0.3-3.5
					c-0.2-1-0.5-1.9-0.9-2.6c-0.4-0.7-1-1.3-1.7-1.7s-1.5-0.6-2.5-0.6c-1,0-1.8,0.2-2.5,0.6s-1.2,0.9-1.7,1.7
					c-0.4,0.7-0.7,1.6-0.9,2.6c-0.2,1-0.3,2.2-0.3,3.5v5.1c0,1.3,0.1,2.4,0.3,3.5s0.5,1.9,0.9,2.6c0.4,0.7,1,1.3,1.7,1.7
					S1639.7,153.1,1640.7,153.1z"/>
				<path class="st3" d="M1661,152.8h2.6v-14.9h-2.6v-1.6h14.1v5.3h-2.1V138h-6.5v14.7h3.3v1.6h-8.8V152.8z"/>
				<path class="st3" d="M1677.4,154.8c-0.7,0-1.2-0.2-1.6-0.6c-0.4-0.4-0.6-0.9-0.6-1.5v-0.2c0-0.6,0.2-1.1,0.6-1.5
					s0.9-0.6,1.6-0.6s1.2,0.2,1.6,0.6c0.4,0.4,0.6,0.9,0.6,1.5v0.2c0,0.6-0.2,1.1-0.6,1.5C1678.6,154.6,1678.1,154.8,1677.4,154.8z"
					/>
			</g>
		</g>
		<g>
			<g>
				<path class="st3" d="M2554,152.8h6.1v-20.4l-6.3,2.9l-0.5-1.5l7.1-3.8h2.7v22.9h5.8v1.6H2554V152.8z"/>
				<path class="st3" d="M2577.1,153.4c1.5-0.3,2.9-0.8,4.1-1.5c1.2-0.7,2.3-1.6,3.2-2.6c0.9-1,1.6-2.2,2.1-3.5
					c0.5-1.3,0.9-2.7,1-4.2l-0.2,0c-0.2,0.4-0.4,0.8-0.8,1.3c-0.3,0.4-0.7,0.8-1.2,1.1c-0.5,0.3-1,0.6-1.7,0.8
					c-0.6,0.2-1.3,0.3-2.1,0.3c-1.1,0-2.1-0.2-3-0.5s-1.6-0.9-2.3-1.6s-1.1-1.5-1.5-2.4c-0.3-0.9-0.5-2-0.5-3.2
					c0-1.2,0.2-2.2,0.6-3.2s1-1.8,1.7-2.5c0.7-0.7,1.6-1.2,2.6-1.6c1-0.4,2.1-0.6,3.2-0.6c2.7,0,4.7,0.9,6.1,2.6
					c1.4,1.7,2.1,4.1,2.1,7.2c0,2.2-0.3,4.2-1,6s-1.6,3.3-2.8,4.7s-2.6,2.4-4.2,3.2c-1.6,0.8-3.3,1.4-5.1,1.7L2577.1,153.4z
					 M2582.4,143.2c0.9,0,1.6-0.1,2.3-0.4c0.6-0.3,1.1-0.7,1.6-1.2c0.4-0.5,0.7-1.1,0.9-1.8c0.2-0.7,0.3-1.4,0.3-2.3v-0.6
					c0-0.8-0.1-1.5-0.3-2.2c-0.2-0.7-0.5-1.3-0.9-1.8c-0.4-0.5-0.9-0.9-1.6-1.2c-0.6-0.3-1.4-0.4-2.3-0.4c-0.9,0-1.6,0.1-2.3,0.4
					c-0.6,0.3-1.1,0.7-1.6,1.2c-0.4,0.5-0.7,1.1-0.9,1.8c-0.2,0.7-0.3,1.4-0.3,2.2v0.6c0,0.8,0.1,1.6,0.3,2.3
					c0.2,0.7,0.5,1.3,0.9,1.8c0.4,0.5,0.9,0.9,1.6,1.2C2580.8,143.1,2581.5,143.2,2582.4,143.2z"/>
				<path class="st3" d="M2602.4,154.8c-1.1,0-2-0.1-2.9-0.4c-0.9-0.3-1.6-0.6-2.2-1c-0.6-0.4-1.1-0.9-1.4-1.4
					c-0.3-0.5-0.5-1-0.5-1.6c0-0.7,0.2-1.3,0.6-1.7c0.4-0.4,0.9-0.6,1.5-0.6s1.1,0.2,1.5,0.6c0.4,0.4,0.6,0.9,0.6,1.5
					c0,0.5-0.1,0.9-0.4,1.2c-0.2,0.3-0.5,0.6-0.9,0.7v0.1c0.4,0.2,0.9,0.4,1.6,0.6c0.6,0.1,1.4,0.2,2.3,0.2c2,0,3.4-0.5,4.4-1.4
					c1-1,1.4-2.3,1.4-3.9V147c0-1.7-0.4-3-1.3-4c-0.9-1-2.2-1.5-3.9-1.5c-1.1,0-2,0.2-2.7,0.7c-0.7,0.5-1.3,1-1.7,1.6l-1.9-0.4
					l0.9-13.4h12.8v2.9h-11.4l-0.7,9.6l0.1,0c0.5-0.8,1.2-1.6,2.1-2.2c0.9-0.6,2-0.9,3.4-0.9c1.1,0,2.1,0.2,3,0.5s1.7,0.8,2.4,1.5
					c0.7,0.7,1.2,1.5,1.6,2.4c0.4,1,0.6,2.1,0.6,3.4c0,1.1-0.2,2.2-0.6,3.1c-0.4,0.9-1,1.8-1.8,2.4c-0.8,0.7-1.7,1.2-2.8,1.6
					C2604.9,154.6,2603.7,154.8,2602.4,154.8z"/>
				<path class="st3" d="M2624.4,154.8c-2.8,0-5-1.1-6.5-3.2c-1.5-2.1-2.3-5.3-2.3-9.4c0-4.1,0.8-7.3,2.3-9.4s3.7-3.2,6.5-3.2
					s5,1.1,6.5,3.2s2.3,5.3,2.3,9.4c0,4.1-0.8,7.3-2.3,9.4C2629.4,153.7,2627.2,154.8,2624.4,154.8z M2624.4,153.1
					c1,0,1.8-0.2,2.5-0.6c0.7-0.4,1.2-0.9,1.7-1.7c0.4-0.7,0.7-1.6,0.9-2.6s0.3-2.2,0.3-3.5v-5.1c0-1.3-0.1-2.4-0.3-3.5
					c-0.2-1-0.5-1.9-0.9-2.6c-0.4-0.7-1-1.3-1.7-1.7c-0.7-0.4-1.5-0.6-2.5-0.6s-1.8,0.2-2.5,0.6c-0.7,0.4-1.2,0.9-1.7,1.7
					c-0.4,0.7-0.7,1.6-0.9,2.6c-0.2,1-0.3,2.2-0.3,3.5v5.1c0,1.3,0.1,2.4,0.3,3.5c0.2,1,0.5,1.9,0.9,2.6c0.4,0.7,1,1.3,1.7,1.7
					C2622.6,152.9,2623.4,153.1,2624.4,153.1z"/>
				<path class="st3" d="M2644.8,152.8h2.6v-14.9h-2.6v-1.6h14.1v5.3h-2.1V138h-6.5v14.7h3.3v1.6h-8.8V152.8z"/>
				<path class="st3" d="M2661.1,154.8c-0.7,0-1.2-0.2-1.6-0.6c-0.4-0.4-0.6-0.9-0.6-1.5v-0.2c0-0.6,0.2-1.1,0.6-1.5
					c0.4-0.4,0.9-0.6,1.6-0.6s1.2,0.2,1.6,0.6c0.4,0.4,0.6,0.9,0.6,1.5v0.2c0,0.6-0.2,1.1-0.6,1.5
					C2662.3,154.6,2661.8,154.8,2661.1,154.8z"/>
			</g>
		</g>
		<g>
			<g>
				<path class="st3" d="M2037.6,152.1h8.7v-29.2l-9,4.1l-0.8-2.1l10.2-5.5h3.8v32.6h8.4v2.2h-21.3V152.1z"/>
				<path class="st3" d="M2070.5,152.9c2.1-0.4,4.1-1.1,5.8-2.1s3.3-2.2,4.5-3.7c1.3-1.5,2.3-3.1,3-5c0.8-1.9,1.2-3.9,1.5-6l-0.3,0
					c-0.3,0.6-0.6,1.2-1.1,1.8c-0.5,0.6-1,1.1-1.7,1.6c-0.7,0.5-1.5,0.8-2.4,1.1c-0.9,0.3-1.9,0.5-3,0.5c-1.6,0-3-0.3-4.3-0.8
					c-1.3-0.5-2.4-1.3-3.2-2.2c-0.9-1-1.6-2.1-2.1-3.5c-0.5-1.3-0.7-2.8-0.7-4.5c0-1.7,0.3-3.2,0.9-4.6c0.6-1.4,1.4-2.6,2.5-3.6
					c1-1,2.3-1.8,3.7-2.3c1.4-0.5,3-0.8,4.6-0.8c3.8,0,6.8,1.2,8.8,3.7c2,2.4,3,5.9,3,10.2c0,3.2-0.5,6-1.5,8.6s-2.3,4.8-4,6.6
					c-1.7,1.9-3.7,3.4-6,4.6c-2.3,1.2-4.7,2-7.3,2.4L2070.5,152.9z M2078.2,138.4c1.3,0,2.4-0.2,3.2-0.6c0.9-0.4,1.6-1,2.2-1.7
					c0.6-0.7,1-1.6,1.3-2.5s0.4-2.1,0.4-3.2v-0.9c0-1.1-0.1-2.2-0.4-3.2s-0.7-1.9-1.3-2.6c-0.6-0.7-1.3-1.3-2.2-1.7
					c-0.9-0.4-2-0.6-3.2-0.6s-2.3,0.2-3.2,0.6c-0.9,0.4-1.6,1-2.2,1.7c-0.6,0.7-1,1.6-1.3,2.6s-0.4,2.1-0.4,3.2v0.9
					c0,1.2,0.1,2.2,0.4,3.2s0.7,1.8,1.3,2.5c0.6,0.7,1.3,1.3,2.2,1.7C2075.8,138.2,2076.9,138.4,2078.2,138.4z"/>
				<path class="st3" d="M2108.2,155c-4,0-7.1-1.5-9.2-4.6c-2.1-3.1-3.2-7.5-3.2-13.4c0-5.9,1.1-10.4,3.2-13.5
					c2.2-3.1,5.2-4.6,9.2-4.6s7.1,1.5,9.2,4.6c2.2,3.1,3.2,7.5,3.2,13.5c0,5.9-1.1,10.4-3.2,13.4
					C2115.3,153.4,2112.2,155,2108.2,155z M2108.2,152.5c1.4,0,2.6-0.3,3.6-0.8c1-0.5,1.8-1.3,2.4-2.4c0.6-1,1.1-2.3,1.4-3.8
					c0.3-1.5,0.4-3.1,0.4-5v-7.3c0-1.8-0.1-3.5-0.4-5c-0.3-1.5-0.7-2.7-1.4-3.8c-0.6-1-1.4-1.8-2.4-2.4c-1-0.5-2.2-0.8-3.6-0.8
					c-1.4,0-2.6,0.3-3.6,0.8c-1,0.5-1.8,1.3-2.4,2.4c-0.6,1-1.1,2.3-1.3,3.8c-0.3,1.5-0.4,3.1-0.4,5v7.3c0,1.8,0.1,3.5,0.4,5
					s0.7,2.7,1.3,3.8c0.6,1,1.4,1.8,2.4,2.4C2105.6,152.2,2106.8,152.5,2108.2,152.5z"/>
				<path class="st3" d="M2138.2,155c-4,0-7.1-1.5-9.2-4.6c-2.2-3.1-3.2-7.5-3.2-13.4c0-5.9,1.1-10.4,3.2-13.5
					c2.1-3.1,5.2-4.6,9.2-4.6s7.1,1.5,9.2,4.6c2.1,3.1,3.2,7.5,3.2,13.5c0,5.9-1.1,10.4-3.2,13.4
					C2145.3,153.4,2142.2,155,2138.2,155z M2138.2,152.5c1.4,0,2.6-0.3,3.6-0.8c1-0.5,1.8-1.3,2.4-2.4c0.6-1,1.1-2.3,1.3-3.8
					s0.4-3.1,0.4-5v-7.3c0-1.8-0.1-3.5-0.4-5c-0.3-1.5-0.7-2.7-1.3-3.8c-0.6-1-1.4-1.8-2.4-2.4c-1-0.5-2.2-0.8-3.6-0.8
					c-1.4,0-2.6,0.3-3.6,0.8s-1.8,1.3-2.4,2.4c-0.6,1-1.1,2.3-1.4,3.8c-0.3,1.5-0.4,3.1-0.4,5v7.3c0,1.8,0.1,3.5,0.4,5
					s0.7,2.7,1.4,3.8c0.6,1,1.4,1.8,2.4,2.4S2136.8,152.5,2138.2,152.5z"/>
				<path class="st3" d="M2167.3,152.1h3.7v-21.2h-3.7v-2.2h20.1v7.6h-3V131h-9.3v21h4.7v2.3h-12.5V152.1z"/>
				<path class="st3" d="M2190.6,155c-1,0-1.7-0.3-2.3-0.9c-0.5-0.6-0.8-1.3-0.8-2.1v-0.3c0-0.8,0.3-1.5,0.8-2.1
					c0.6-0.6,1.3-0.9,2.3-0.9s1.7,0.3,2.3,0.9c0.5,0.6,0.8,1.3,0.8,2.1v0.3c0,0.8-0.3,1.5-0.8,2.1
					C2192.4,154.7,2191.6,155,2190.6,155z"/>
			</g>
		</g>
		<g>
			<g>
				<path class="st3" d="M3020.8,151.1l11.4-11.4c1.7-1.7,3-3.3,3.9-5s1.4-3.5,1.4-5.5v-1.1c0-2.1-0.6-3.8-1.8-5
					c-1.2-1.2-2.9-1.8-5.1-1.8c-1.2,0-2.2,0.1-3,0.4c-0.8,0.2-1.5,0.5-2,0.8v0.1c0.4,0.2,0.8,0.5,1.2,1c0.4,0.5,0.6,1.1,0.6,1.9
					c0,0.9-0.3,1.6-0.9,2.2c-0.6,0.6-1.3,0.9-2.1,0.9c-0.9,0-1.7-0.3-2.2-0.9c-0.5-0.6-0.8-1.4-0.8-2.4c0-0.8,0.3-1.6,0.8-2.4
					c0.5-0.8,1.2-1.4,2.1-2c0.9-0.6,1.9-1,3.1-1.4c1.2-0.3,2.5-0.5,3.9-0.5c3.4,0,6,0.8,8,2.5c2,1.7,2.9,4,2.9,7
					c0,1.5-0.2,2.9-0.6,4.1c-0.4,1.2-1,2.4-1.8,3.5c-0.7,1.1-1.6,2.1-2.6,3.1c-1,1-2,1.9-3.1,2.9l-9.5,8.3v0.2h16.5v-4.8h2.5v8.7
					h-22.7V151.1z"/>
				<path class="st3" d="M3062.7,155c-4,0-7.1-1.5-9.2-4.6c-2.1-3.1-3.2-7.5-3.2-13.4c0-5.9,1.1-10.4,3.2-13.5
					c2.1-3.1,5.2-4.6,9.2-4.6s7.1,1.5,9.2,4.6c2.1,3.1,3.2,7.5,3.2,13.5c0,5.9-1.1,10.4-3.2,13.4
					C3069.8,153.4,3066.7,155,3062.7,155z M3062.7,152.5c1.4,0,2.6-0.3,3.6-0.8c1-0.5,1.8-1.3,2.4-2.4c0.6-1,1.1-2.3,1.4-3.8
					c0.3-1.5,0.4-3.1,0.4-5v-7.3c0-1.8-0.1-3.5-0.4-5c-0.3-1.5-0.7-2.7-1.4-3.8c-0.6-1-1.4-1.8-2.4-2.4c-1-0.5-2.2-0.8-3.6-0.8
					s-2.6,0.3-3.6,0.8c-1,0.5-1.8,1.3-2.4,2.4c-0.6,1-1.1,2.3-1.4,3.8c-0.3,1.5-0.4,3.1-0.4,5v7.3c0,1.8,0.1,3.5,0.4,5
					s0.7,2.7,1.4,3.8c0.6,1,1.4,1.8,2.4,2.4C3060.1,152.2,3061.3,152.5,3062.7,152.5z"/>
				<path class="st3" d="M3092.7,155c-4,0-7.1-1.5-9.2-4.6c-2.1-3.1-3.2-7.5-3.2-13.4c0-5.9,1.1-10.4,3.2-13.5
					c2.1-3.1,5.2-4.6,9.2-4.6s7.1,1.5,9.2,4.6c2.1,3.1,3.2,7.5,3.2,13.5c0,5.9-1.1,10.4-3.2,13.4
					C3099.8,153.4,3096.7,155,3092.7,155z M3092.7,152.5c1.4,0,2.6-0.3,3.6-0.8c1-0.5,1.8-1.3,2.4-2.4c0.6-1,1.1-2.3,1.4-3.8
					c0.3-1.5,0.4-3.1,0.4-5v-7.3c0-1.8-0.1-3.5-0.4-5c-0.3-1.5-0.7-2.7-1.4-3.8c-0.6-1-1.4-1.8-2.4-2.4c-1-0.5-2.2-0.8-3.6-0.8
					s-2.6,0.3-3.6,0.8c-1,0.5-1.8,1.3-2.4,2.4c-0.6,1-1.1,2.3-1.4,3.8c-0.3,1.5-0.4,3.1-0.4,5v7.3c0,1.8,0.1,3.5,0.4,5
					s0.7,2.7,1.4,3.8c0.6,1,1.4,1.8,2.4,2.4C3090.1,152.2,3091.3,152.5,3092.7,152.5z"/>
				<path class="st3" d="M3122.7,155c-4,0-7.1-1.5-9.2-4.6c-2.1-3.1-3.2-7.5-3.2-13.4c0-5.9,1.1-10.4,3.2-13.5
					c2.1-3.1,5.2-4.6,9.2-4.6s7.1,1.5,9.2,4.6c2.1,3.1,3.2,7.5,3.2,13.5c0,5.9-1.1,10.4-3.2,13.4
					C3129.8,153.4,3126.7,155,3122.7,155z M3122.7,152.5c1.4,0,2.6-0.3,3.6-0.8c1-0.5,1.8-1.3,2.4-2.4c0.6-1,1.1-2.3,1.4-3.8
					c0.3-1.5,0.4-3.1,0.4-5v-7.3c0-1.8-0.1-3.5-0.4-5c-0.3-1.5-0.7-2.7-1.4-3.8c-0.6-1-1.4-1.8-2.4-2.4c-1-0.5-2.2-0.8-3.6-0.8
					s-2.6,0.3-3.6,0.8c-1,0.5-1.8,1.3-2.4,2.4c-0.6,1-1.1,2.3-1.4,3.8c-0.3,1.5-0.4,3.1-0.4,5v7.3c0,1.8,0.1,3.5,0.4,5
					s0.7,2.7,1.4,3.8c0.6,1,1.4,1.8,2.4,2.4C3120.1,152.2,3121.3,152.5,3122.7,152.5z"/>
				<path class="st3" d="M3151.8,152.1h3.7v-21.2h-3.7v-2.2h20.1v7.6h-3V131h-9.4v21h4.7v2.3h-12.5V152.1z"/>
				<path class="st3" d="M3175.2,155c-1,0-1.7-0.3-2.3-0.9c-0.5-0.6-0.8-1.3-0.8-2.1v-0.3c0-0.8,0.3-1.5,0.8-2.1
					c0.6-0.6,1.3-0.9,2.3-0.9c1,0,1.7,0.3,2.3,0.9c0.5,0.6,0.8,1.3,0.8,2.1v0.3c0,0.8-0.3,1.5-0.8,2.1
					C3176.9,154.7,3176.1,155,3175.2,155z"/>
			</g>
		</g>
	</g>
	<g class="st2">
		<line class="st5" x1="148.8" y1="172.6" x2="148.8" y2="197.6"/>
		<line class="st5" x1="1132.5" y1="172.6" x2="1132.5" y2="197.6"/>
		<line class="st5" x1="2116.1" y1="172.6" x2="2116.1" y2="197.6"/>
		<line class="st5" x1="3099.8" y1="172.6" x2="3099.8" y2="197.6"/>
	</g>
	<g class="st2">
		<line class="st6" x1="640.9" y1="172.4" x2="640.9" y2="197.4"/>
		<line class="st6" x1="1624.6" y1="172.4" x2="1624.6" y2="197.4"/>
		<line class="st6" x1="2608.4" y1="172.4" x2="2608.4" y2="197.4"/>
	</g>
	<g class="st2">
		<line class="st7" x1="149" y1="177.6" x2="149" y2="197.6"/>
		<line class="st7" x1="247.4" y1="177.6" x2="247.4" y2="197.6"/>
		<line class="st7" x1="345.8" y1="177.6" x2="345.8" y2="197.6"/>
		<line class="st7" x1="444.1" y1="177.6" x2="444.1" y2="197.6"/>
		<line class="st7" x1="542.5" y1="177.6" x2="542.5" y2="197.6"/>
		<line class="st7" x1="739.3" y1="177.6" x2="739.3" y2="197.6"/>
		<line class="st7" x1="837.6" y1="177.6" x2="837.6" y2="197.6"/>
		<line class="st7" x1="936" y1="177.6" x2="936" y2="197.6"/>
		<line class="st7" x1="1034.4" y1="177.6" x2="1034.4" y2="197.6"/>
		<line class="st7" x1="1132.8" y1="177.6" x2="1132.8" y2="197.6"/>
		<line class="st7" x1="1231.1" y1="177.6" x2="1231.1" y2="197.6"/>
		<line class="st7" x1="1329.5" y1="177.6" x2="1329.5" y2="197.6"/>
		<line class="st7" x1="1427.9" y1="177.6" x2="1427.9" y2="197.6"/>
		<line class="st7" x1="1526.3" y1="177.6" x2="1526.3" y2="197.6"/>
		<line class="st7" x1="1723" y1="177.6" x2="1723" y2="197.6"/>
		<line class="st7" x1="1821.4" y1="177.6" x2="1821.4" y2="197.6"/>
		<line class="st7" x1="1919.8" y1="177.6" x2="1919.8" y2="197.6"/>
		<line class="st7" x1="2018.1" y1="177.6" x2="2018.1" y2="197.6"/>
		<line class="st7" x1="2116.5" y1="177.6" x2="2116.5" y2="197.6"/>
		<line class="st7" x1="2214.9" y1="177.6" x2="2214.9" y2="197.6"/>
		<line class="st7" x1="2313.3" y1="177.6" x2="2313.3" y2="197.6"/>
		<line class="st7" x1="2411.6" y1="177.6" x2="2411.6" y2="197.6"/>
		<line class="st7" x1="2510" y1="177.6" x2="2510" y2="197.6"/>
		<line class="st7" x1="2706.8" y1="177.6" x2="2706.8" y2="197.6"/>
		<line class="st7" x1="2805.1" y1="177.6" x2="2805.1" y2="197.6"/>
		<line class="st7" x1="2903.5" y1="177.6" x2="2903.5" y2="197.6"/>
		<line class="st7" x1="3001.9" y1="177.6" x2="3001.9" y2="197.6"/>
		<line class="st7" x1="3100.3" y1="177.6" x2="3100.3" y2="197.6"/>
		<line class="st7" x1="3198.6" y1="177.6" x2="3198.6" y2="197.6"/>
		<line class="st7" x1="3297" y1="177.6" x2="3297" y2="197.6"/>
	</g>
	<g class="st2">
		<line class="st8" x1="50.6" y1="183.9" x2="50.6" y2="198.9"/>
		<line class="st8" x1="60.5" y1="183.9" x2="60.5" y2="198.9"/>
		<line class="st8" x1="70.3" y1="183.9" x2="70.3" y2="198.9"/>
		<line class="st8" x1="80.1" y1="183.9" x2="80.1" y2="198.9"/>
		<line class="st8" x1="90" y1="183.9" x2="90" y2="198.9"/>
		<line class="st8" x1="99.8" y1="183.9" x2="99.8" y2="198.9"/>
		<line class="st8" x1="109.7" y1="183.9" x2="109.7" y2="198.9"/>
		<line class="st8" x1="119.5" y1="183.9" x2="119.5" y2="198.9"/>
		<line class="st8" x1="129.3" y1="183.9" x2="129.3" y2="198.9"/>
		<line class="st8" x1="139.2" y1="183.9" x2="139.2" y2="198.9"/>
		<line class="st8" x1="149" y1="183.9" x2="149" y2="198.9"/>
		<line class="st8" x1="158.8" y1="183.9" x2="158.8" y2="198.9"/>
		<line class="st8" x1="168.7" y1="183.9" x2="168.7" y2="198.9"/>
		<line class="st8" x1="178.5" y1="183.9" x2="178.5" y2="198.9"/>
		<line class="st8" x1="188.4" y1="183.9" x2="188.4" y2="198.9"/>
		<line class="st8" x1="198.2" y1="183.9" x2="198.2" y2="198.9"/>
		<line class="st8" x1="208" y1="183.9" x2="208" y2="198.9"/>
		<line class="st8" x1="217.9" y1="183.9" x2="217.9" y2="198.9"/>
		<line class="st8" x1="227.7" y1="183.9" x2="227.7" y2="198.9"/>
		<line class="st8" x1="237.5" y1="183.9" x2="237.5" y2="198.9"/>
		<line class="st8" x1="247.4" y1="183.9" x2="247.4" y2="198.9"/>
		<line class="st8" x1="257.2" y1="183.9" x2="257.2" y2="198.9"/>
		<line class="st8" x1="267.1" y1="183.9" x2="267.1" y2="198.9"/>
		<line class="st8" x1="276.9" y1="183.9" x2="276.9" y2="198.9"/>
		<line class="st8" x1="286.7" y1="183.9" x2="286.7" y2="198.9"/>
		<line class="st8" x1="296.6" y1="183.9" x2="296.6" y2="198.9"/>
		<line class="st8" x1="306.4" y1="183.9" x2="306.4" y2="198.9"/>
		<line class="st8" x1="316.2" y1="183.9" x2="316.2" y2="198.9"/>
		<line class="st8" x1="326.1" y1="183.9" x2="326.1" y2="198.9"/>
		<line class="st8" x1="335.9" y1="183.9" x2="335.9" y2="198.9"/>
		<line class="st8" x1="345.8" y1="183.9" x2="345.8" y2="198.9"/>
		<line class="st8" x1="355.6" y1="183.9" x2="355.6" y2="198.9"/>
		<line class="st8" x1="365.4" y1="183.9" x2="365.4" y2="198.9"/>
		<line class="st8" x1="375.3" y1="183.9" x2="375.3" y2="198.9"/>
		<line class="st8" x1="385.1" y1="183.9" x2="385.1" y2="198.9"/>
		<line class="st8" x1="394.9" y1="183.9" x2="394.9" y2="198.9"/>
		<line class="st8" x1="404.8" y1="183.9" x2="404.8" y2="198.9"/>
		<line class="st8" x1="414.6" y1="183.9" x2="414.6" y2="198.9"/>
		<line class="st8" x1="424.5" y1="183.9" x2="424.5" y2="198.9"/>
		<line class="st8" x1="434.3" y1="183.9" x2="434.3" y2="198.9"/>
		<line class="st8" x1="444.1" y1="183.9" x2="444.1" y2="198.9"/>
		<line class="st8" x1="454" y1="183.9" x2="454" y2="198.9"/>
		<line class="st8" x1="463.8" y1="183.9" x2="463.8" y2="198.9"/>
		<line class="st8" x1="473.6" y1="183.9" x2="473.6" y2="198.9"/>
		<line class="st8" x1="483.5" y1="183.9" x2="483.5" y2="198.9"/>
		<line class="st8" x1="493.3" y1="183.9" x2="493.3" y2="198.9"/>
		<line class="st8" x1="503.2" y1="183.9" x2="503.2" y2="198.9"/>
		<line class="st8" x1="513" y1="183.9" x2="513" y2="198.9"/>
		<line class="st8" x1="522.8" y1="183.9" x2="522.8" y2="198.9"/>
		<line class="st8" x1="532.7" y1="183.9" x2="532.7" y2="198.9"/>
		<line class="st8" x1="542.5" y1="183.9" x2="542.5" y2="198.9"/>
		<line class="st8" x1="552.3" y1="183.9" x2="552.3" y2="198.9"/>
		<line class="st8" x1="562.2" y1="183.9" x2="562.2" y2="198.9"/>
		<line class="st8" x1="572" y1="183.9" x2="572" y2="198.9"/>
		<line class="st8" x1="581.9" y1="183.9" x2="581.9" y2="198.9"/>
		<line class="st8" x1="591.7" y1="183.9" x2="591.7" y2="198.9"/>
		<line class="st8" x1="601.5" y1="183.9" x2="601.5" y2="198.9"/>
		<line class="st8" x1="611.4" y1="183.9" x2="611.4" y2="198.9"/>
		<line class="st8" x1="621.2" y1="183.9" x2="621.2" y2="198.9"/>
		<line class="st8" x1="631" y1="183.9" x2="631" y2="198.9"/>
		<line class="st8" x1="640.9" y1="183.9" x2="640.9" y2="198.9"/>
		<line class="st8" x1="650.7" y1="183.9" x2="650.7" y2="198.9"/>
		<line class="st8" x1="660.6" y1="183.9" x2="660.6" y2="198.9"/>
		<line class="st8" x1="670.4" y1="183.9" x2="670.4" y2="198.9"/>
		<line class="st8" x1="680.2" y1="183.9" x2="680.2" y2="198.9"/>
		<line class="st8" x1="690.1" y1="183.9" x2="690.1" y2="198.9"/>
		<line class="st8" x1="699.9" y1="183.9" x2="699.9" y2="198.9"/>
		<line class="st8" x1="709.7" y1="183.9" x2="709.7" y2="198.9"/>
		<line class="st8" x1="719.6" y1="183.9" x2="719.6" y2="198.9"/>
		<line class="st8" x1="729.4" y1="183.9" x2="729.4" y2="198.9"/>
		<line class="st8" x1="739.3" y1="183.9" x2="739.3" y2="198.9"/>
		<line class="st8" x1="749.1" y1="183.9" x2="749.1" y2="198.9"/>
		<line class="st8" x1="758.9" y1="183.9" x2="758.9" y2="198.9"/>
		<line class="st8" x1="768.8" y1="183.9" x2="768.8" y2="198.9"/>
		<line class="st8" x1="778.6" y1="183.9" x2="778.6" y2="198.9"/>
		<line class="st8" x1="788.4" y1="183.9" x2="788.4" y2="198.9"/>
		<line class="st8" x1="798.3" y1="183.9" x2="798.3" y2="198.9"/>
		<line class="st8" x1="808.1" y1="183.9" x2="808.1" y2="198.9"/>
		<line class="st8" x1="818" y1="183.9" x2="818" y2="198.9"/>
		<line class="st8" x1="827.8" y1="183.9" x2="827.8" y2="198.9"/>
		<line class="st8" x1="837.6" y1="183.9" x2="837.6" y2="198.9"/>
		<line class="st8" x1="847.5" y1="183.9" x2="847.5" y2="198.9"/>
		<line class="st8" x1="857.3" y1="183.9" x2="857.3" y2="198.9"/>
		<line class="st8" x1="867.1" y1="183.9" x2="867.1" y2="198.9"/>
		<line class="st8" x1="877" y1="183.9" x2="877" y2="198.9"/>
		<line class="st8" x1="886.8" y1="183.9" x2="886.8" y2="198.9"/>
		<line class="st8" x1="896.7" y1="183.9" x2="896.7" y2="198.9"/>
		<line class="st8" x1="906.5" y1="183.9" x2="906.5" y2="198.9"/>
		<line class="st8" x1="916.3" y1="183.9" x2="916.3" y2="198.9"/>
		<line class="st8" x1="926.2" y1="183.9" x2="926.2" y2="198.9"/>
		<line class="st8" x1="936" y1="183.9" x2="936" y2="198.9"/>
		<line class="st8" x1="945.8" y1="183.9" x2="945.8" y2="198.9"/>
		<line class="st8" x1="955.7" y1="183.9" x2="955.7" y2="198.9"/>
		<line class="st8" x1="965.5" y1="183.9" x2="965.5" y2="198.9"/>
		<line class="st8" x1="975.4" y1="183.9" x2="975.4" y2="198.9"/>
		<line class="st8" x1="985.2" y1="183.9" x2="985.2" y2="198.9"/>
		<line class="st8" x1="995" y1="183.9" x2="995" y2="198.9"/>
		<line class="st8" x1="1004.9" y1="183.9" x2="1004.9" y2="198.9"/>
		<line class="st8" x1="1014.7" y1="183.9" x2="1014.7" y2="198.9"/>
		<line class="st8" x1="1024.5" y1="183.9" x2="1024.5" y2="198.9"/>
		<line class="st8" x1="1034.4" y1="183.9" x2="1034.4" y2="198.9"/>
		<line class="st8" x1="1044.2" y1="183.9" x2="1044.2" y2="198.9"/>
		<line class="st8" x1="1054.1" y1="183.9" x2="1054.1" y2="198.9"/>
		<line class="st8" x1="1063.9" y1="183.9" x2="1063.9" y2="198.9"/>
		<line class="st8" x1="1073.7" y1="183.9" x2="1073.7" y2="198.9"/>
		<line class="st8" x1="1083.6" y1="183.9" x2="1083.6" y2="198.9"/>
		<line class="st8" x1="1093.4" y1="183.9" x2="1093.4" y2="198.9"/>
		<line class="st8" x1="1103.2" y1="183.9" x2="1103.2" y2="198.9"/>
		<line class="st8" x1="1113.1" y1="183.9" x2="1113.1" y2="198.9"/>
		<line class="st8" x1="1122.9" y1="183.9" x2="1122.9" y2="198.9"/>
		<line class="st8" x1="1132.8" y1="183.9" x2="1132.8" y2="198.9"/>
		<line class="st8" x1="1142.6" y1="183.9" x2="1142.6" y2="198.9"/>
		<line class="st8" x1="1152.4" y1="183.9" x2="1152.4" y2="198.9"/>
		<line class="st8" x1="1162.3" y1="183.9" x2="1162.3" y2="198.9"/>
		<line class="st8" x1="1172.1" y1="183.9" x2="1172.1" y2="198.9"/>
		<line class="st8" x1="1181.9" y1="183.9" x2="1181.9" y2="198.9"/>
		<line class="st8" x1="1191.8" y1="183.9" x2="1191.8" y2="198.9"/>
		<line class="st8" x1="1201.6" y1="183.9" x2="1201.6" y2="198.9"/>
		<line class="st8" x1="1211.5" y1="183.9" x2="1211.5" y2="198.9"/>
		<line class="st8" x1="1221.3" y1="183.9" x2="1221.3" y2="198.9"/>
		<line class="st8" x1="1231.1" y1="183.9" x2="1231.1" y2="198.9"/>
		<line class="st8" x1="1241" y1="183.9" x2="1241" y2="198.9"/>
		<line class="st8" x1="1250.8" y1="183.9" x2="1250.8" y2="198.9"/>
		<line class="st8" x1="1260.6" y1="183.9" x2="1260.6" y2="198.9"/>
		<line class="st8" x1="1270.5" y1="183.9" x2="1270.5" y2="198.9"/>
		<line class="st8" x1="1280.3" y1="183.9" x2="1280.3" y2="198.9"/>
		<line class="st8" x1="1290.2" y1="183.9" x2="1290.2" y2="198.9"/>
		<line class="st8" x1="1300" y1="183.9" x2="1300" y2="198.9"/>
		<line class="st8" x1="1309.8" y1="183.9" x2="1309.8" y2="198.9"/>
		<line class="st8" x1="1319.7" y1="183.9" x2="1319.7" y2="198.9"/>
		<line class="st8" x1="1329.5" y1="183.9" x2="1329.5" y2="198.9"/>
		<line class="st8" x1="1339.3" y1="183.9" x2="1339.3" y2="198.9"/>
		<line class="st8" x1="1349.2" y1="183.9" x2="1349.2" y2="198.9"/>
		<line class="st8" x1="1359" y1="183.9" x2="1359" y2="198.9"/>
		<line class="st8" x1="1368.9" y1="183.9" x2="1368.9" y2="198.9"/>
		<line class="st8" x1="1378.7" y1="183.9" x2="1378.7" y2="198.9"/>
		<line class="st8" x1="1388.5" y1="183.9" x2="1388.5" y2="198.9"/>
		<line class="st8" x1="1398.4" y1="183.9" x2="1398.4" y2="198.9"/>
		<line class="st8" x1="1408.2" y1="183.9" x2="1408.2" y2="198.9"/>
		<line class="st8" x1="1418" y1="183.9" x2="1418" y2="198.9"/>
		<line class="st8" x1="1427.9" y1="183.9" x2="1427.9" y2="198.9"/>
		<line class="st8" x1="1437.7" y1="183.9" x2="1437.7" y2="198.9"/>
		<line class="st8" x1="1447.6" y1="183.9" x2="1447.6" y2="198.9"/>
		<line class="st8" x1="1457.4" y1="183.9" x2="1457.4" y2="198.9"/>
		<line class="st8" x1="1467.2" y1="183.9" x2="1467.2" y2="198.9"/>
		<line class="st8" x1="1477.1" y1="183.9" x2="1477.1" y2="198.9"/>
		<line class="st8" x1="1486.9" y1="183.9" x2="1486.9" y2="198.9"/>
		<line class="st8" x1="1496.7" y1="183.9" x2="1496.7" y2="198.9"/>
		<line class="st8" x1="1506.6" y1="183.9" x2="1506.6" y2="198.9"/>
		<line class="st8" x1="1516.4" y1="183.9" x2="1516.4" y2="198.9"/>
		<line class="st8" x1="1526.3" y1="183.9" x2="1526.3" y2="198.9"/>
		<line class="st8" x1="1536.1" y1="183.9" x2="1536.1" y2="198.9"/>
		<line class="st8" x1="1545.9" y1="183.9" x2="1545.9" y2="198.9"/>
		<line class="st8" x1="1555.8" y1="183.9" x2="1555.8" y2="198.9"/>
		<line class="st8" x1="1565.6" y1="183.9" x2="1565.6" y2="198.9"/>
		<line class="st8" x1="1575.4" y1="183.9" x2="1575.4" y2="198.9"/>
		<line class="st8" x1="1585.3" y1="183.9" x2="1585.3" y2="198.9"/>
		<line class="st8" x1="1595.1" y1="183.9" x2="1595.1" y2="198.9"/>
		<line class="st8" x1="1605" y1="183.9" x2="1605" y2="198.9"/>
		<line class="st8" x1="1614.8" y1="183.9" x2="1614.8" y2="198.9"/>
		<line class="st8" x1="1624.6" y1="183.9" x2="1624.6" y2="198.9"/>
		<line class="st8" x1="1634.5" y1="183.9" x2="1634.5" y2="198.9"/>
		<line class="st8" x1="1644.3" y1="183.9" x2="1644.3" y2="198.9"/>
		<line class="st8" x1="1654.1" y1="183.9" x2="1654.1" y2="198.9"/>
		<line class="st8" x1="1664" y1="183.9" x2="1664" y2="198.9"/>
		<line class="st8" x1="1673.8" y1="183.9" x2="1673.8" y2="198.9"/>
		<line class="st8" x1="1683.7" y1="183.9" x2="1683.7" y2="198.9"/>
		<line class="st8" x1="1693.5" y1="183.9" x2="1693.5" y2="198.9"/>
		<line class="st8" x1="1703.3" y1="183.9" x2="1703.3" y2="198.9"/>
		<line class="st8" x1="1713.2" y1="183.9" x2="1713.2" y2="198.9"/>
		<line class="st8" x1="1723" y1="183.9" x2="1723" y2="198.9"/>
		<line class="st8" x1="1732.8" y1="183.9" x2="1732.8" y2="198.9"/>
		<line class="st8" x1="1742.7" y1="183.9" x2="1742.7" y2="198.9"/>
		<line class="st8" x1="1752.5" y1="183.9" x2="1752.5" y2="198.9"/>
		<line class="st8" x1="1762.4" y1="183.9" x2="1762.4" y2="198.9"/>
		<line class="st8" x1="1772.2" y1="183.9" x2="1772.2" y2="198.9"/>
		<line class="st8" x1="1782" y1="183.9" x2="1782" y2="198.9"/>
		<line class="st8" x1="1791.9" y1="183.9" x2="1791.9" y2="198.9"/>
		<line class="st8" x1="1801.7" y1="183.9" x2="1801.7" y2="198.9"/>
		<line class="st8" x1="1811.5" y1="183.9" x2="1811.5" y2="198.9"/>
		<line class="st8" x1="1821.4" y1="183.9" x2="1821.4" y2="198.9"/>
		<line class="st8" x1="1831.2" y1="183.9" x2="1831.2" y2="198.9"/>
		<line class="st8" x1="1841.1" y1="183.9" x2="1841.1" y2="198.9"/>
		<line class="st8" x1="1850.9" y1="183.9" x2="1850.9" y2="198.9"/>
		<line class="st8" x1="1860.7" y1="183.9" x2="1860.7" y2="198.9"/>
		<line class="st8" x1="1870.6" y1="183.9" x2="1870.6" y2="198.9"/>
		<line class="st8" x1="1880.4" y1="183.9" x2="1880.4" y2="198.9"/>
		<line class="st8" x1="1890.2" y1="183.9" x2="1890.2" y2="198.9"/>
		<line class="st8" x1="1900.1" y1="183.9" x2="1900.1" y2="198.9"/>
		<line class="st8" x1="1909.9" y1="183.9" x2="1909.9" y2="198.9"/>
		<line class="st8" x1="1919.8" y1="183.9" x2="1919.8" y2="198.9"/>
		<line class="st8" x1="1929.6" y1="183.9" x2="1929.6" y2="198.9"/>
		<line class="st8" x1="1939.4" y1="183.9" x2="1939.4" y2="198.9"/>
		<line class="st8" x1="1949.3" y1="183.9" x2="1949.3" y2="198.9"/>
		<line class="st8" x1="1959.1" y1="183.9" x2="1959.1" y2="198.9"/>
		<line class="st8" x1="1968.9" y1="183.9" x2="1968.9" y2="198.9"/>
		<line class="st8" x1="1978.8" y1="183.9" x2="1978.8" y2="198.9"/>
		<line class="st8" x1="1988.6" y1="183.9" x2="1988.6" y2="198.9"/>
		<line class="st8" x1="1998.5" y1="183.9" x2="1998.5" y2="198.9"/>
		<line class="st8" x1="2008.3" y1="183.9" x2="2008.3" y2="198.9"/>
		<line class="st8" x1="2018.1" y1="183.9" x2="2018.1" y2="198.9"/>
		<line class="st8" x1="2028" y1="183.9" x2="2028" y2="198.9"/>
		<line class="st8" x1="2037.8" y1="183.9" x2="2037.8" y2="198.9"/>
		<line class="st8" x1="2047.6" y1="183.9" x2="2047.6" y2="198.9"/>
		<line class="st8" x1="2057.5" y1="183.9" x2="2057.5" y2="198.9"/>
		<line class="st8" x1="2067.3" y1="183.9" x2="2067.3" y2="198.9"/>
		<line class="st8" x1="2077.2" y1="183.9" x2="2077.2" y2="198.9"/>
		<line class="st8" x1="2087" y1="183.9" x2="2087" y2="198.9"/>
		<line class="st8" x1="2096.8" y1="183.9" x2="2096.8" y2="198.9"/>
		<line class="st8" x1="2106.7" y1="183.9" x2="2106.7" y2="198.9"/>
		<line class="st8" x1="2116.5" y1="183.9" x2="2116.5" y2="198.9"/>
		<line class="st8" x1="2126.3" y1="183.9" x2="2126.3" y2="198.9"/>
		<line class="st8" x1="2136.2" y1="183.9" x2="2136.2" y2="198.9"/>
		<line class="st8" x1="2146" y1="183.9" x2="2146" y2="198.9"/>
		<line class="st8" x1="2155.9" y1="183.9" x2="2155.9" y2="198.9"/>
		<line class="st8" x1="2165.7" y1="183.9" x2="2165.7" y2="198.9"/>
		<line class="st8" x1="2175.5" y1="183.9" x2="2175.5" y2="198.9"/>
		<line class="st8" x1="2185.4" y1="183.9" x2="2185.4" y2="198.9"/>
		<line class="st8" x1="2195.2" y1="183.9" x2="2195.2" y2="198.9"/>
		<line class="st8" x1="2205" y1="183.9" x2="2205" y2="198.9"/>
		<line class="st8" x1="2214.9" y1="183.9" x2="2214.9" y2="198.9"/>
		<line class="st8" x1="2224.7" y1="183.9" x2="2224.7" y2="198.9"/>
		<line class="st8" x1="2234.6" y1="183.9" x2="2234.6" y2="198.9"/>
		<line class="st8" x1="2244.4" y1="183.9" x2="2244.4" y2="198.9"/>
		<line class="st8" x1="2254.2" y1="183.9" x2="2254.2" y2="198.9"/>
		<line class="st8" x1="2264.1" y1="183.9" x2="2264.1" y2="198.9"/>
		<line class="st8" x1="2273.9" y1="183.9" x2="2273.9" y2="198.9"/>
		<line class="st8" x1="2283.7" y1="183.9" x2="2283.7" y2="198.9"/>
		<line class="st8" x1="2293.6" y1="183.9" x2="2293.6" y2="198.9"/>
		<line class="st8" x1="2303.4" y1="183.9" x2="2303.4" y2="198.9"/>
		<line class="st8" x1="2313.3" y1="183.9" x2="2313.3" y2="198.9"/>
		<line class="st8" x1="2323.1" y1="183.9" x2="2323.1" y2="198.9"/>
		<line class="st8" x1="2332.9" y1="183.9" x2="2332.9" y2="198.9"/>
		<line class="st8" x1="2342.8" y1="183.9" x2="2342.8" y2="198.9"/>
		<line class="st8" x1="2352.6" y1="183.9" x2="2352.6" y2="198.9"/>
		<line class="st8" x1="2362.4" y1="183.9" x2="2362.4" y2="198.9"/>
		<line class="st8" x1="2372.3" y1="183.9" x2="2372.3" y2="198.9"/>
		<line class="st8" x1="2382.1" y1="183.9" x2="2382.1" y2="198.9"/>
		<line class="st8" x1="2392" y1="183.9" x2="2392" y2="198.9"/>
		<line class="st8" x1="2401.8" y1="183.9" x2="2401.8" y2="198.9"/>
		<line class="st8" x1="2411.6" y1="183.9" x2="2411.6" y2="198.9"/>
		<line class="st8" x1="2421.5" y1="183.9" x2="2421.5" y2="198.9"/>
		<line class="st8" x1="2431.3" y1="183.9" x2="2431.3" y2="198.9"/>
		<line class="st8" x1="2441.1" y1="183.9" x2="2441.1" y2="198.9"/>
		<line class="st8" x1="2451" y1="183.9" x2="2451" y2="198.9"/>
		<line class="st8" x1="2460.8" y1="183.9" x2="2460.8" y2="198.9"/>
		<line class="st8" x1="2470.7" y1="183.9" x2="2470.7" y2="198.9"/>
		<line class="st8" x1="2480.5" y1="183.9" x2="2480.5" y2="198.9"/>
		<line class="st8" x1="2490.3" y1="183.9" x2="2490.3" y2="198.9"/>
		<line class="st8" x1="2500.2" y1="183.9" x2="2500.2" y2="198.9"/>
		<line class="st8" x1="2510" y1="183.9" x2="2510" y2="198.9"/>
		<line class="st8" x1="2519.8" y1="183.9" x2="2519.8" y2="198.9"/>
		<line class="st8" x1="2529.7" y1="183.9" x2="2529.7" y2="198.9"/>
		<line class="st8" x1="2539.5" y1="183.9" x2="2539.5" y2="198.9"/>
		<line class="st8" x1="2549.4" y1="183.9" x2="2549.4" y2="198.9"/>
		<line class="st8" x1="2559.2" y1="183.9" x2="2559.2" y2="198.9"/>
		<line class="st8" x1="2569" y1="183.9" x2="2569" y2="198.9"/>
		<line class="st8" x1="2578.9" y1="183.9" x2="2578.9" y2="198.9"/>
		<line class="st8" x1="2588.7" y1="183.9" x2="2588.7" y2="198.9"/>
		<line class="st8" x1="2598.5" y1="183.9" x2="2598.5" y2="198.9"/>
		<line class="st8" x1="2608.4" y1="183.9" x2="2608.4" y2="198.9"/>
		<line class="st8" x1="2618.2" y1="183.9" x2="2618.2" y2="198.9"/>
		<line class="st8" x1="2628.1" y1="183.9" x2="2628.1" y2="198.9"/>
		<line class="st8" x1="2637.9" y1="183.9" x2="2637.9" y2="198.9"/>
		<line class="st8" x1="2647.7" y1="183.9" x2="2647.7" y2="198.9"/>
		<line class="st8" x1="2657.6" y1="183.9" x2="2657.6" y2="198.9"/>
		<line class="st8" x1="2667.4" y1="183.9" x2="2667.4" y2="198.9"/>
		<line class="st8" x1="2677.2" y1="183.9" x2="2677.2" y2="198.9"/>
		<line class="st8" x1="2687.1" y1="183.9" x2="2687.1" y2="198.9"/>
		<line class="st8" x1="2696.9" y1="183.9" x2="2696.9" y2="198.9"/>
		<line class="st8" x1="2706.8" y1="183.9" x2="2706.8" y2="198.9"/>
		<line class="st8" x1="2716.6" y1="183.9" x2="2716.6" y2="198.9"/>
		<line class="st8" x1="2726.4" y1="183.9" x2="2726.4" y2="198.9"/>
		<line class="st8" x1="2736.3" y1="183.9" x2="2736.3" y2="198.9"/>
		<line class="st8" x1="2746.1" y1="183.9" x2="2746.1" y2="198.9"/>
		<line class="st8" x1="2755.9" y1="183.9" x2="2755.9" y2="198.9"/>
		<line class="st8" x1="2765.8" y1="183.9" x2="2765.8" y2="198.9"/>
		<line class="st8" x1="2775.6" y1="183.9" x2="2775.6" y2="198.9"/>
		<line class="st8" x1="2785.5" y1="183.9" x2="2785.5" y2="198.9"/>
		<line class="st8" x1="2795.3" y1="183.9" x2="2795.3" y2="198.9"/>
		<line class="st8" x1="2805.1" y1="183.9" x2="2805.1" y2="198.9"/>
		<line class="st8" x1="2815" y1="183.9" x2="2815" y2="198.9"/>
		<line class="st8" x1="2824.8" y1="183.9" x2="2824.8" y2="198.9"/>
		<line class="st8" x1="2834.6" y1="183.9" x2="2834.6" y2="198.9"/>
		<line class="st8" x1="2844.5" y1="183.9" x2="2844.5" y2="198.9"/>
		<line class="st8" x1="2854.3" y1="183.9" x2="2854.3" y2="198.9"/>
		<line class="st8" x1="2864.2" y1="183.9" x2="2864.2" y2="198.9"/>
		<line class="st8" x1="2874" y1="183.9" x2="2874" y2="198.9"/>
		<line class="st8" x1="2883.8" y1="183.9" x2="2883.8" y2="198.9"/>
		<line class="st8" x1="2893.7" y1="183.9" x2="2893.7" y2="198.9"/>
		<line class="st8" x1="2903.5" y1="183.9" x2="2903.5" y2="198.9"/>
		<line class="st8" x1="2913.3" y1="183.9" x2="2913.3" y2="198.9"/>
		<line class="st8" x1="2923.2" y1="183.9" x2="2923.2" y2="198.9"/>
		<line class="st8" x1="2933" y1="183.9" x2="2933" y2="198.9"/>
		<line class="st8" x1="2942.9" y1="183.9" x2="2942.9" y2="198.9"/>
		<line class="st8" x1="2952.7" y1="183.9" x2="2952.7" y2="198.9"/>
		<line class="st8" x1="2962.5" y1="183.9" x2="2962.5" y2="198.9"/>
		<line class="st8" x1="2972.4" y1="183.9" x2="2972.4" y2="198.9"/>
		<line class="st8" x1="2982.2" y1="183.9" x2="2982.2" y2="198.9"/>
		<line class="st8" x1="2992" y1="183.9" x2="2992" y2="198.9"/>
		<line class="st8" x1="3001.9" y1="183.9" x2="3001.9" y2="198.9"/>
		<line class="st8" x1="3011.7" y1="183.9" x2="3011.7" y2="198.9"/>
		<line class="st8" x1="3021.6" y1="183.9" x2="3021.6" y2="198.9"/>
		<line class="st8" x1="3031.4" y1="183.9" x2="3031.4" y2="198.9"/>
		<line class="st8" x1="3041.2" y1="183.9" x2="3041.2" y2="198.9"/>
		<line class="st8" x1="3051.1" y1="183.9" x2="3051.1" y2="198.9"/>
		<line class="st8" x1="3060.9" y1="183.9" x2="3060.9" y2="198.9"/>
		<line class="st8" x1="3070.7" y1="183.9" x2="3070.7" y2="198.9"/>
		<line class="st8" x1="3080.6" y1="183.9" x2="3080.6" y2="198.9"/>
		<line class="st8" x1="3090.4" y1="183.9" x2="3090.4" y2="198.9"/>
		<line class="st8" x1="3100.3" y1="183.9" x2="3100.3" y2="198.9"/>
		<line class="st8" x1="3110.1" y1="183.9" x2="3110.1" y2="198.9"/>
		<line class="st8" x1="3119.9" y1="183.9" x2="3119.9" y2="198.9"/>
		<line class="st8" x1="3129.8" y1="183.9" x2="3129.8" y2="198.9"/>
		<line class="st8" x1="3139.6" y1="183.9" x2="3139.6" y2="198.9"/>
		<line class="st8" x1="3149.4" y1="183.9" x2="3149.4" y2="198.9"/>
		<line class="st8" x1="3159.3" y1="183.9" x2="3159.3" y2="198.9"/>
		<line class="st8" x1="3169.1" y1="183.9" x2="3169.1" y2="198.9"/>
		<line class="st8" x1="3179" y1="183.9" x2="3179" y2="198.9"/>
		<line class="st8" x1="3188.8" y1="183.9" x2="3188.8" y2="198.9"/>
		<line class="st8" x1="3198.6" y1="183.9" x2="3198.6" y2="198.9"/>
		<line class="st8" x1="3208.5" y1="183.9" x2="3208.5" y2="198.9"/>
		<line class="st8" x1="3218.3" y1="183.9" x2="3218.3" y2="198.9"/>
		<line class="st8" x1="3228.1" y1="183.9" x2="3228.1" y2="198.9"/>
		<line class="st8" x1="3238" y1="183.9" x2="3238" y2="198.9"/>
		<line class="st8" x1="3247.8" y1="183.9" x2="3247.8" y2="198.9"/>
		<line class="st8" x1="3257.7" y1="183.9" x2="3257.7" y2="198.9"/>
		<line class="st8" x1="3267.5" y1="183.9" x2="3267.5" y2="198.9"/>
		<line class="st8" x1="3277.3" y1="183.9" x2="3277.3" y2="198.9"/>
		<line class="st8" x1="3287.2" y1="183.9" x2="3287.2" y2="198.9"/>
		<line class="st8" x1="3297" y1="183.9" x2="3297" y2="198.9"/>
		<line class="st8" x1="3306.8" y1="183.9" x2="3306.8" y2="198.9"/>
		<line class="st8" x1="3316.7" y1="183.9" x2="3316.7" y2="198.9"/>
		<line class="st8" x1="3326.5" y1="183.9" x2="3326.5" y2="198.9"/>
		<line class="st8" x1="3336.4" y1="183.9" x2="3336.4" y2="198.9"/>
		<line class="st8" x1="3346.2" y1="183.9" x2="3346.2" y2="198.9"/>
		<line class="st8" x1="3356" y1="183.9" x2="3356" y2="198.9"/>
		<line class="st8" x1="3365.9" y1="183.9" x2="3365.9" y2="198.9"/>
		<line class="st8" x1="3375.7" y1="183.9" x2="3375.7" y2="198.9"/>
		<line class="st8" x1="3385.5" y1="183.9" x2="3385.5" y2="198.9"/>
		<line class="st8" x1="3395.4" y1="183.9" x2="3395.4" y2="198.9"/>
	</g>
	<g class="st2">
		<path class="st3" d="M73.2,152.1h8.6v-29.2l-9,4.1l-0.8-2.1l10.2-5.5h3.9v32.6h8.4v2.2H73.2V152.1z"/>
		<path class="st3" d="M122.2,123.6h-17.4v5.8h-2.5v-10h22.9v3l-13.4,31.9h-3.6L122.2,123.6z"/>
		<path class="st3" d="M143.8,155c-4,0-7.1-1.5-9.2-4.6c-2.1-3.1-3.2-7.5-3.2-13.4c0-5.9,1.1-10.4,3.2-13.5c2.1-3.1,5.2-4.6,9.2-4.6
			s7.1,1.5,9.2,4.6c2.1,3.1,3.2,7.5,3.2,13.5c0,5.9-1.1,10.4-3.2,13.4C150.8,153.4,147.8,155,143.8,155z M143.8,152.5
			c1.4,0,2.6-0.3,3.6-0.8c1-0.5,1.8-1.3,2.4-2.4c0.6-1,1.1-2.3,1.4-3.8c0.3-1.5,0.4-3.1,0.4-5v-7.3c0-1.8-0.1-3.5-0.4-5
			c-0.3-1.5-0.7-2.7-1.4-3.8c-0.6-1-1.4-1.8-2.4-2.4c-1-0.5-2.2-0.8-3.6-0.8s-2.6,0.3-3.6,0.8c-1,0.5-1.8,1.3-2.4,2.4
			c-0.6,1-1.1,2.3-1.4,3.8c-0.3,1.5-0.4,3.1-0.4,5v7.3c0,1.8,0.1,3.5,0.4,5s0.7,2.7,1.4,3.8c0.6,1,1.4,1.8,2.4,2.4
			C141.2,152.2,142.4,152.5,143.8,152.5z"/>
		<path class="st3" d="M173.8,155c-4,0-7.1-1.5-9.2-4.6c-2.1-3.1-3.2-7.5-3.2-13.4c0-5.9,1.1-10.4,3.2-13.5c2.1-3.1,5.2-4.6,9.2-4.6
			s7.1,1.5,9.2,4.6c2.1,3.1,3.2,7.5,3.2,13.5c0,5.9-1.1,10.4-3.2,13.4C180.8,153.4,177.8,155,173.8,155z M173.8,152.5
			c1.4,0,2.6-0.3,3.6-0.8c1-0.5,1.8-1.3,2.4-2.4c0.6-1,1.1-2.3,1.4-3.8c0.3-1.5,0.4-3.1,0.4-5v-7.3c0-1.8-0.1-3.5-0.4-5
			c-0.3-1.5-0.7-2.7-1.4-3.8c-0.6-1-1.4-1.8-2.4-2.4c-1-0.5-2.2-0.8-3.6-0.8s-2.6,0.3-3.6,0.8c-1,0.5-1.8,1.3-2.4,2.4
			c-0.6,1-1.1,2.3-1.4,3.8c-0.3,1.5-0.4,3.1-0.4,5v7.3c0,1.8,0.1,3.5,0.4,5s0.7,2.7,1.4,3.8c0.6,1,1.4,1.8,2.4,2.4
			C171.2,152.2,172.4,152.5,173.8,152.5z"/>
		<path class="st3" d="M202.9,152.1h3.7v-21.2h-3.7v-2.2H223v7.6h-3V131h-9.4v21h4.7v2.3h-12.5V152.1z"/>
		<path class="st3" d="M226.2,155c-1,0-1.7-0.3-2.3-0.9c-0.5-0.6-0.8-1.3-0.8-2.1v-0.3c0-0.8,0.3-1.5,0.8-2.1
			c0.6-0.6,1.3-0.9,2.3-0.9c1,0,1.7,0.3,2.3,0.9c0.5,0.6,0.8,1.3,0.8,2.1v0.3c0,0.8-0.3,1.5-0.8,2.1
			C227.9,154.7,227.2,155,226.2,155z"/>
	</g>
</g>
<g id="Layer_2">
	<g>
		
			<image style="overflow:visible;" width="3418" height="159" xlink:href="1BF57FF00A7949D2.png"  transform="matrix(1 0 0 1 13.7791 76.2225)">
		</image>
	</g>
	<g>
		<g>
			<path class="st9" d="M73.2,152.1h8.6v-29.2l-9,4.1l-0.8-2.1l10.2-5.5h3.9v32.6h8.4v2.2H73.2V152.1z"/>
			<path class="st9" d="M122.2,123.6h-17.4v5.8h-2.5v-10h22.9v3l-13.4,31.9h-3.6L122.2,123.6z"/>
			<path class="st9" d="M143.8,155c-4,0-7.1-1.5-9.2-4.6c-2.1-3.1-3.2-7.5-3.2-13.4c0-5.9,1.1-10.4,3.2-13.5
				c2.1-3.1,5.2-4.6,9.2-4.6s7.1,1.5,9.2,4.6c2.1,3.1,3.2,7.5,3.2,13.5c0,5.9-1.1,10.4-3.2,13.4C150.8,153.4,147.8,155,143.8,155z
				 M143.8,152.5c1.4,0,2.6-0.3,3.6-0.8c1-0.5,1.8-1.3,2.4-2.4c0.6-1,1.1-2.3,1.4-3.8c0.3-1.5,0.4-3.1,0.4-5v-7.3
				c0-1.8-0.1-3.5-0.4-5c-0.3-1.5-0.7-2.7-1.4-3.8c-0.6-1-1.4-1.8-2.4-2.4c-1-0.5-2.2-0.8-3.6-0.8s-2.6,0.3-3.6,0.8
				c-1,0.5-1.8,1.3-2.4,2.4c-0.6,1-1.1,2.3-1.4,3.8c-0.3,1.5-0.4,3.1-0.4,5v7.3c0,1.8,0.1,3.5,0.4,5s0.7,2.7,1.4,3.8
				c0.6,1,1.4,1.8,2.4,2.4C141.2,152.2,142.4,152.5,143.8,152.5z"/>
			<path class="st9" d="M173.8,155c-4,0-7.1-1.5-9.2-4.6c-2.1-3.1-3.2-7.5-3.2-13.4c0-5.9,1.1-10.4,3.2-13.5
				c2.1-3.1,5.2-4.6,9.2-4.6s7.1,1.5,9.2,4.6c2.1,3.1,3.2,7.5,3.2,13.5c0,5.9-1.1,10.4-3.2,13.4C180.8,153.4,177.8,155,173.8,155z
				 M173.8,152.5c1.4,0,2.6-0.3,3.6-0.8c1-0.5,1.8-1.3,2.4-2.4c0.6-1,1.1-2.3,1.4-3.8c0.3-1.5,0.4-3.1,0.4-5v-7.3
				c0-1.8-0.1-3.5-0.4-5c-0.3-1.5-0.7-2.7-1.4-3.8c-0.6-1-1.4-1.8-2.4-2.4c-1-0.5-2.2-0.8-3.6-0.8s-2.6,0.3-3.6,0.8
				c-1,0.5-1.8,1.3-2.4,2.4c-0.6,1-1.1,2.3-1.4,3.8c-0.3,1.5-0.4,3.1-0.4,5v7.3c0,1.8,0.1,3.5,0.4,5s0.7,2.7,1.4,3.8
				c0.6,1,1.4,1.8,2.4,2.4C171.2,152.2,172.4,152.5,173.8,152.5z"/>
			<path class="st9" d="M202.9,152.1h3.7v-21.2h-3.7v-2.2H223v7.6h-3V131h-9.4v21h4.7v2.3h-12.5V152.1z"/>
			<path class="st9" d="M226.2,155c-1,0-1.7-0.3-2.3-0.9c-0.5-0.6-0.8-1.3-0.8-2.1v-0.3c0-0.8,0.3-1.5,0.8-2.1
				c0.6-0.6,1.3-0.9,2.3-0.9c1,0,1.7,0.3,2.3,0.9c0.5,0.6,0.8,1.3,0.8,2.1v0.3c0,0.8-0.3,1.5-0.8,2.1
				C227.9,154.7,227.2,155,226.2,155z"/>
		</g>
	</g>
	<line class="st10" x1="0" y1="199.1" x2="3439.7" y2="199.1"/>
	<g>
		<g>
			<path class="st9" d="M1054.1,152.1h8.6v-29.2l-9,4.1l-0.8-2.1l10.2-5.5h3.9v32.6h8.4v2.2h-21.3V152.1z"/>
			<path class="st9" d="M1094.7,155c-1.9,0-3.6-0.2-5.1-0.7c-1.5-0.5-2.7-1.2-3.8-2c-1-0.9-1.8-1.9-2.3-3.1c-0.6-1.2-0.8-2.6-0.8-4
				c0-1.3,0.2-2.4,0.7-3.4c0.5-1,1.1-1.9,1.8-2.6s1.6-1.3,2.6-1.8c1-0.5,2-0.8,3-1V136c-0.9-0.1-1.8-0.4-2.6-0.9
				c-0.9-0.5-1.6-1.1-2.2-1.8c-0.6-0.7-1.2-1.6-1.6-2.5c-0.4-0.9-0.6-1.9-0.6-3c0-1.4,0.3-2.6,0.8-3.7c0.5-1.1,1.3-2,2.2-2.8
				c1-0.8,2.1-1.4,3.4-1.8c1.3-0.4,2.8-0.6,4.5-0.6c1.6,0,3.1,0.2,4.5,0.6c1.3,0.4,2.5,1,3.4,1.8c1,0.8,1.7,1.7,2.2,2.8
				c0.5,1.1,0.8,2.3,0.8,3.7c0,1.1-0.2,2.1-0.6,3c-0.4,0.9-0.9,1.8-1.6,2.5c-0.6,0.7-1.4,1.3-2.2,1.8c-0.9,0.5-1.7,0.8-2.6,0.9v0.3
				c1,0.2,2,0.5,3,1c1,0.5,1.8,1.1,2.6,1.8s1.4,1.6,1.8,2.6c0.5,1,0.7,2.2,0.7,3.4c0,1.5-0.3,2.8-0.8,4c-0.5,1.2-1.3,2.3-2.3,3.1
				c-1,0.9-2.3,1.5-3.8,2C1098.3,154.7,1096.6,155,1094.7,155z M1094.7,152.6c1.2,0,2.3-0.2,3.2-0.5c0.9-0.4,1.7-0.9,2.3-1.5
				c0.6-0.7,1.1-1.4,1.4-2.3c0.3-0.9,0.5-1.8,0.5-2.8v-1.1c0-1-0.2-1.9-0.5-2.8c-0.3-0.9-0.8-1.7-1.4-2.3c-0.6-0.6-1.4-1.2-2.3-1.5
				c-0.9-0.4-2-0.5-3.2-0.5s-2.3,0.2-3.2,0.5c-0.9,0.4-1.7,0.9-2.3,1.5c-0.6,0.7-1.1,1.4-1.4,2.3c-0.3,0.9-0.5,1.8-0.5,2.8v1.1
				c0,1,0.2,1.9,0.5,2.8c0.3,0.9,0.8,1.7,1.4,2.3c0.6,0.6,1.4,1.2,2.3,1.5C1092.4,152.4,1093.5,152.6,1094.7,152.6z M1094.7,134.9
				c1.1,0,2-0.2,2.9-0.6c0.8-0.4,1.5-0.8,2-1.4c0.5-0.6,0.9-1.3,1.2-2.1s0.4-1.6,0.4-2.5v-0.7c0-0.9-0.1-1.7-0.4-2.5
				c-0.2-0.8-0.6-1.5-1.2-2.1c-0.5-0.6-1.2-1.1-2-1.4c-0.8-0.4-1.8-0.6-2.9-0.6s-2,0.2-2.9,0.6c-0.8,0.4-1.5,0.8-2,1.4
				c-0.5,0.6-0.9,1.3-1.2,2.1c-0.2,0.8-0.4,1.6-0.4,2.5v0.7c0,0.9,0.1,1.7,0.4,2.5s0.6,1.5,1.2,2.1c0.5,0.6,1.2,1.1,2,1.4
				C1092.6,134.7,1093.6,134.9,1094.7,134.9z"/>
			<path class="st9" d="M1124.7,155c-4,0-7.1-1.5-9.2-4.6c-2.1-3.1-3.2-7.5-3.2-13.4c0-5.9,1.1-10.4,3.2-13.5
				c2.1-3.1,5.2-4.6,9.2-4.6s7.1,1.5,9.2,4.6c2.1,3.1,3.2,7.5,3.2,13.5c0,5.9-1.1,10.4-3.2,13.4C1131.8,153.4,1128.7,155,1124.7,155
				z M1124.7,152.5c1.4,0,2.6-0.3,3.6-0.8c1-0.5,1.8-1.3,2.4-2.4c0.6-1,1.1-2.3,1.4-3.8c0.3-1.5,0.4-3.1,0.4-5v-7.3
				c0-1.8-0.1-3.5-0.4-5c-0.3-1.5-0.7-2.7-1.4-3.8c-0.6-1-1.4-1.8-2.4-2.4c-1-0.5-2.2-0.8-3.6-0.8s-2.6,0.3-3.6,0.8
				c-1,0.5-1.8,1.3-2.4,2.4c-0.6,1-1.1,2.3-1.4,3.8c-0.3,1.5-0.4,3.1-0.4,5v7.3c0,1.8,0.1,3.5,0.4,5s0.7,2.7,1.4,3.8
				c0.6,1,1.4,1.8,2.4,2.4C1122.1,152.2,1123.3,152.5,1124.7,152.5z"/>
			<path class="st9" d="M1154.7,155c-4,0-7.1-1.5-9.2-4.6c-2.1-3.1-3.2-7.5-3.2-13.4c0-5.9,1.1-10.4,3.2-13.5
				c2.1-3.1,5.2-4.6,9.2-4.6s7.1,1.5,9.2,4.6c2.1,3.1,3.2,7.5,3.2,13.5c0,5.9-1.1,10.4-3.2,13.4C1161.8,153.4,1158.7,155,1154.7,155
				z M1154.7,152.5c1.4,0,2.6-0.3,3.6-0.8c1-0.5,1.8-1.3,2.4-2.4c0.6-1,1.1-2.3,1.4-3.8c0.3-1.5,0.4-3.1,0.4-5v-7.3
				c0-1.8-0.1-3.5-0.4-5c-0.3-1.5-0.7-2.7-1.4-3.8c-0.6-1-1.4-1.8-2.4-2.4c-1-0.5-2.2-0.8-3.6-0.8s-2.6,0.3-3.6,0.8
				c-1,0.5-1.8,1.3-2.4,2.4c-0.6,1-1.1,2.3-1.4,3.8c-0.3,1.5-0.4,3.1-0.4,5v7.3c0,1.8,0.1,3.5,0.4,5s0.7,2.7,1.4,3.8
				c0.6,1,1.4,1.8,2.4,2.4C1152.1,152.2,1153.3,152.5,1154.7,152.5z"/>
			<path class="st9" d="M1183.8,152.1h3.7v-21.2h-3.7v-2.2h20.1v7.6h-3V131h-9.4v21h4.7v2.3h-12.5V152.1z"/>
			<path class="st9" d="M1207.1,155c-1,0-1.7-0.3-2.3-0.9c-0.5-0.6-0.8-1.3-0.8-2.1v-0.3c0-0.8,0.3-1.5,0.8-2.1
				c0.6-0.6,1.3-0.9,2.3-0.9c1,0,1.7,0.3,2.3,0.9c0.5,0.6,0.8,1.3,0.8,2.1v0.3c0,0.8-0.3,1.5-0.8,2.1
				C1208.9,154.7,1208.1,155,1207.1,155z"/>
		</g>
	</g>
	<g>
		<g>
			<path class="st9" d="M586.5,152.8h6.1v-20.4l-6.3,2.9l-0.5-1.5l7.1-3.8h2.7v22.9h5.8v1.6h-14.9V152.8z"/>
			<path class="st9" d="M620.8,132.9h-12.2v4.1h-1.8v-7h16.1v2.1l-9.4,22.3H611L620.8,132.9z"/>
			<path class="st9" d="M634.9,154.8c-1.1,0-2-0.1-2.9-0.4c-0.9-0.3-1.6-0.6-2.2-1c-0.6-0.4-1.1-0.9-1.4-1.4c-0.3-0.5-0.5-1-0.5-1.6
				c0-0.7,0.2-1.3,0.6-1.7c0.4-0.4,0.9-0.6,1.5-0.6s1.1,0.2,1.5,0.6c0.4,0.4,0.6,0.9,0.6,1.5c0,0.5-0.1,0.9-0.4,1.2
				c-0.2,0.3-0.5,0.6-0.9,0.7v0.1c0.4,0.2,0.9,0.4,1.6,0.6c0.6,0.1,1.4,0.2,2.3,0.2c2,0,3.4-0.5,4.4-1.4c1-1,1.4-2.3,1.4-3.9V147
				c0-1.7-0.4-3-1.3-4c-0.9-1-2.2-1.5-3.9-1.5c-1.1,0-2,0.2-2.7,0.7c-0.7,0.5-1.3,1-1.7,1.6l-1.9-0.4l0.9-13.4h12.8v2.9h-11.4
				l-0.7,9.6l0.1,0c0.5-0.8,1.2-1.6,2.1-2.2c0.9-0.6,2-0.9,3.4-0.9c1.1,0,2.1,0.2,3,0.5s1.7,0.8,2.4,1.5c0.7,0.7,1.2,1.5,1.6,2.4
				c0.4,1,0.6,2.1,0.6,3.4c0,1.1-0.2,2.2-0.6,3.1c-0.4,0.9-1,1.8-1.8,2.4c-0.8,0.7-1.7,1.2-2.8,1.6
				C637.4,154.6,636.2,154.8,634.9,154.8z"/>
			<path class="st9" d="M656.9,154.8c-2.8,0-5-1.1-6.5-3.2c-1.5-2.1-2.3-5.3-2.3-9.4c0-4.1,0.8-7.3,2.3-9.4s3.7-3.2,6.5-3.2
				s5,1.1,6.5,3.2s2.3,5.3,2.3,9.4c0,4.1-0.8,7.3-2.3,9.4C661.9,153.7,659.7,154.8,656.9,154.8z M656.9,153.1c1,0,1.8-0.2,2.5-0.6
				c0.7-0.4,1.2-0.9,1.7-1.7c0.4-0.7,0.7-1.6,0.9-2.6s0.3-2.2,0.3-3.5v-5.1c0-1.3-0.1-2.4-0.3-3.5c-0.2-1-0.5-1.9-0.9-2.6
				c-0.4-0.7-1-1.3-1.7-1.7c-0.7-0.4-1.5-0.6-2.5-0.6s-1.8,0.2-2.5,0.6c-0.7,0.4-1.2,0.9-1.7,1.7c-0.4,0.7-0.7,1.6-0.9,2.6
				c-0.2,1-0.3,2.2-0.3,3.5v5.1c0,1.3,0.1,2.4,0.3,3.5c0.2,1,0.5,1.9,0.9,2.6c0.4,0.7,1,1.3,1.7,1.7
				C655.1,152.9,655.9,153.1,656.9,153.1z"/>
			<path class="st9" d="M677.3,152.8h2.6v-14.9h-2.6v-1.6h14.1v5.3h-2.1V138h-6.5v14.7h3.3v1.6h-8.8V152.8z"/>
			<path class="st9" d="M693.6,154.8c-0.7,0-1.2-0.2-1.6-0.6c-0.4-0.4-0.6-0.9-0.6-1.5v-0.2c0-0.6,0.2-1.1,0.6-1.5
				c0.4-0.4,0.9-0.6,1.6-0.6s1.2,0.2,1.6,0.6c0.4,0.4,0.6,0.9,0.6,1.5v0.2c0,0.6-0.2,1.1-0.6,1.5
				C694.8,154.6,694.3,154.8,693.6,154.8z"/>
		</g>
	</g>
	<g>
		<g>
			<path class="st9" d="M1570.3,152.8h6.1v-20.4l-6.3,2.9l-0.5-1.5l7.1-3.8h2.7v22.9h5.8v1.6h-14.9V152.8z"/>
			<path class="st9" d="M1598.7,154.8c-1.3,0-2.5-0.2-3.6-0.5s-1.9-0.8-2.6-1.4c-0.7-0.6-1.3-1.3-1.6-2.2c-0.4-0.9-0.6-1.8-0.6-2.8
				c0-0.9,0.2-1.7,0.5-2.4c0.3-0.7,0.8-1.3,1.3-1.8c0.5-0.5,1.1-0.9,1.8-1.2c0.7-0.3,1.4-0.5,2.1-0.7v-0.2c-0.6-0.1-1.2-0.3-1.8-0.6
				c-0.6-0.3-1.1-0.7-1.6-1.3c-0.5-0.5-0.8-1.1-1.1-1.8c-0.3-0.7-0.4-1.4-0.4-2.1c0-1,0.2-1.8,0.6-2.6c0.4-0.8,0.9-1.4,1.6-2
				c0.7-0.5,1.5-1,2.4-1.2c0.9-0.3,2-0.4,3.1-0.4c1.1,0,2.2,0.1,3.1,0.4c0.9,0.3,1.7,0.7,2.4,1.2c0.7,0.5,1.2,1.2,1.6,2
				c0.4,0.8,0.6,1.6,0.6,2.6c0,0.7-0.1,1.4-0.4,2.1c-0.3,0.7-0.6,1.2-1.1,1.8c-0.5,0.5-1,0.9-1.6,1.3c-0.6,0.3-1.2,0.5-1.8,0.6v0.2
				c0.7,0.1,1.4,0.3,2.1,0.7c0.7,0.3,1.3,0.7,1.8,1.2c0.5,0.5,1,1.1,1.3,1.8c0.3,0.7,0.5,1.5,0.5,2.4c0,1-0.2,2-0.6,2.8
				c-0.4,0.9-0.9,1.6-1.6,2.2c-0.7,0.6-1.6,1.1-2.6,1.4C1601.2,154.6,1600,154.8,1598.7,154.8z M1598.7,153.2c0.8,0,1.6-0.1,2.2-0.4
				c0.7-0.3,1.2-0.6,1.6-1.1c0.4-0.5,0.8-1,1-1.6c0.2-0.6,0.3-1.3,0.3-2v-0.7c0-0.7-0.1-1.4-0.3-2c-0.2-0.6-0.6-1.2-1-1.6
				c-0.4-0.5-1-0.8-1.6-1.1c-0.7-0.3-1.4-0.4-2.2-0.4s-1.6,0.1-2.2,0.4s-1.2,0.6-1.6,1.1s-0.8,1-1,1.6s-0.3,1.3-0.3,2v0.7
				c0,0.7,0.1,1.4,0.3,2c0.2,0.6,0.6,1.2,1,1.6s1,0.8,1.6,1.1S1597.8,153.2,1598.7,153.2z M1598.7,140.8c0.8,0,1.4-0.1,2-0.4
				c0.6-0.3,1-0.6,1.4-1c0.4-0.4,0.6-0.9,0.8-1.5c0.2-0.5,0.3-1.1,0.3-1.7v-0.5c0-0.6-0.1-1.2-0.3-1.7c-0.2-0.5-0.4-1-0.8-1.5
				c-0.4-0.4-0.8-0.8-1.4-1s-1.2-0.4-2-0.4s-1.4,0.1-2,0.4s-1,0.6-1.4,1c-0.4,0.4-0.6,0.9-0.8,1.5c-0.2,0.5-0.3,1.1-0.3,1.7v0.5
				c0,0.6,0.1,1.2,0.3,1.7c0.2,0.5,0.4,1,0.8,1.5c0.4,0.4,0.8,0.8,1.4,1C1597.2,140.6,1597.9,140.8,1598.7,140.8z"/>
			<path class="st9" d="M1618.6,154.8c-1.1,0-2-0.1-2.9-0.4c-0.9-0.3-1.6-0.6-2.2-1c-0.6-0.4-1.1-0.9-1.4-1.4
				c-0.3-0.5-0.5-1-0.5-1.6c0-0.7,0.2-1.3,0.6-1.7c0.4-0.4,0.9-0.6,1.5-0.6s1.1,0.2,1.5,0.6c0.4,0.4,0.6,0.9,0.6,1.5
				c0,0.5-0.1,0.9-0.4,1.2c-0.2,0.3-0.5,0.6-0.9,0.7v0.1c0.4,0.2,0.9,0.4,1.6,0.6c0.6,0.1,1.4,0.2,2.3,0.2c2,0,3.4-0.5,4.4-1.4
				c1-1,1.4-2.3,1.4-3.9V147c0-1.7-0.4-3-1.3-4c-0.9-1-2.2-1.5-3.9-1.5c-1.1,0-2,0.2-2.7,0.7c-0.7,0.5-1.3,1-1.7,1.6l-1.9-0.4
				l0.9-13.4h12.8v2.9H1615l-0.7,9.6l0.1,0c0.5-0.8,1.2-1.6,2.1-2.2c0.9-0.6,2-0.9,3.4-0.9c1.1,0,2.1,0.2,3,0.5s1.7,0.8,2.4,1.5
				c0.7,0.7,1.2,1.5,1.6,2.4c0.4,1,0.6,2.1,0.6,3.4c0,1.1-0.2,2.2-0.6,3.1c-0.4,0.9-1,1.8-1.8,2.4c-0.8,0.7-1.7,1.2-2.8,1.6
				C1621.2,154.6,1620,154.8,1618.6,154.8z"/>
			<path class="st9" d="M1640.7,154.8c-2.8,0-5-1.1-6.5-3.2c-1.5-2.1-2.3-5.3-2.3-9.4c0-4.1,0.8-7.3,2.3-9.4s3.7-3.2,6.5-3.2
				s5,1.1,6.5,3.2s2.3,5.3,2.3,9.4c0,4.1-0.8,7.3-2.3,9.4C1645.6,153.7,1643.5,154.8,1640.7,154.8z M1640.7,153.1
				c1,0,1.8-0.2,2.5-0.6s1.2-0.9,1.7-1.7c0.4-0.7,0.7-1.6,0.9-2.6s0.3-2.2,0.3-3.5v-5.1c0-1.3-0.1-2.4-0.3-3.5
				c-0.2-1-0.5-1.9-0.9-2.6c-0.4-0.7-1-1.3-1.7-1.7s-1.5-0.6-2.5-0.6c-1,0-1.8,0.2-2.5,0.6s-1.2,0.9-1.7,1.7
				c-0.4,0.7-0.7,1.6-0.9,2.6c-0.2,1-0.3,2.2-0.3,3.5v5.1c0,1.3,0.1,2.4,0.3,3.5s0.5,1.9,0.9,2.6c0.4,0.7,1,1.3,1.7,1.7
				S1639.7,153.1,1640.7,153.1z"/>
			<path class="st9" d="M1661,152.8h2.6v-14.9h-2.6v-1.6h14.1v5.3h-2.1V138h-6.5v14.7h3.3v1.6h-8.8V152.8z"/>
			<path class="st9" d="M1677.4,154.8c-0.7,0-1.2-0.2-1.6-0.6c-0.4-0.4-0.6-0.9-0.6-1.5v-0.2c0-0.6,0.2-1.1,0.6-1.5s0.9-0.6,1.6-0.6
				s1.2,0.2,1.6,0.6c0.4,0.4,0.6,0.9,0.6,1.5v0.2c0,0.6-0.2,1.1-0.6,1.5C1678.6,154.6,1678.1,154.8,1677.4,154.8z"/>
		</g>
	</g>
	<g>
		<g>
			<path class="st9" d="M2554,152.8h6.1v-20.4l-6.3,2.9l-0.5-1.5l7.1-3.8h2.7v22.9h5.8v1.6H2554V152.8z"/>
			<path class="st9" d="M2577.1,153.4c1.5-0.3,2.9-0.8,4.1-1.5c1.2-0.7,2.3-1.6,3.2-2.6c0.9-1,1.6-2.2,2.1-3.5
				c0.5-1.3,0.9-2.7,1-4.2l-0.2,0c-0.2,0.4-0.4,0.8-0.8,1.3c-0.3,0.4-0.7,0.8-1.2,1.1c-0.5,0.3-1,0.6-1.7,0.8
				c-0.6,0.2-1.3,0.3-2.1,0.3c-1.1,0-2.1-0.2-3-0.5s-1.6-0.9-2.3-1.6s-1.1-1.5-1.5-2.4c-0.3-0.9-0.5-2-0.5-3.2
				c0-1.2,0.2-2.2,0.6-3.2s1-1.8,1.7-2.5c0.7-0.7,1.6-1.2,2.6-1.6c1-0.4,2.1-0.6,3.2-0.6c2.7,0,4.7,0.9,6.1,2.6
				c1.4,1.7,2.1,4.1,2.1,7.2c0,2.2-0.3,4.2-1,6s-1.6,3.3-2.8,4.7s-2.6,2.4-4.2,3.2c-1.6,0.8-3.3,1.4-5.1,1.7L2577.1,153.4z
				 M2582.4,143.2c0.9,0,1.6-0.1,2.3-0.4c0.6-0.3,1.1-0.7,1.6-1.2c0.4-0.5,0.7-1.1,0.9-1.8c0.2-0.7,0.3-1.4,0.3-2.3v-0.6
				c0-0.8-0.1-1.5-0.3-2.2c-0.2-0.7-0.5-1.3-0.9-1.8c-0.4-0.5-0.9-0.9-1.6-1.2c-0.6-0.3-1.4-0.4-2.3-0.4c-0.9,0-1.6,0.1-2.3,0.4
				c-0.6,0.3-1.1,0.7-1.6,1.2c-0.4,0.5-0.7,1.1-0.9,1.8c-0.2,0.7-0.3,1.4-0.3,2.2v0.6c0,0.8,0.1,1.6,0.3,2.3
				c0.2,0.7,0.5,1.3,0.9,1.8c0.4,0.5,0.9,0.9,1.6,1.2C2580.8,143.1,2581.5,143.2,2582.4,143.2z"/>
			<path class="st9" d="M2602.4,154.8c-1.1,0-2-0.1-2.9-0.4c-0.9-0.3-1.6-0.6-2.2-1c-0.6-0.4-1.1-0.9-1.4-1.4
				c-0.3-0.5-0.5-1-0.5-1.6c0-0.7,0.2-1.3,0.6-1.7c0.4-0.4,0.9-0.6,1.5-0.6s1.1,0.2,1.5,0.6c0.4,0.4,0.6,0.9,0.6,1.5
				c0,0.5-0.1,0.9-0.4,1.2c-0.2,0.3-0.5,0.6-0.9,0.7v0.1c0.4,0.2,0.9,0.4,1.6,0.6c0.6,0.1,1.4,0.2,2.3,0.2c2,0,3.4-0.5,4.4-1.4
				c1-1,1.4-2.3,1.4-3.9V147c0-1.7-0.4-3-1.3-4c-0.9-1-2.2-1.5-3.9-1.5c-1.1,0-2,0.2-2.7,0.7c-0.7,0.5-1.3,1-1.7,1.6l-1.9-0.4
				l0.9-13.4h12.8v2.9h-11.4l-0.7,9.6l0.1,0c0.5-0.8,1.2-1.6,2.1-2.2c0.9-0.6,2-0.9,3.4-0.9c1.1,0,2.1,0.2,3,0.5s1.7,0.8,2.4,1.5
				c0.7,0.7,1.2,1.5,1.6,2.4c0.4,1,0.6,2.1,0.6,3.4c0,1.1-0.2,2.2-0.6,3.1c-0.4,0.9-1,1.8-1.8,2.4c-0.8,0.7-1.7,1.2-2.8,1.6
				C2604.9,154.6,2603.7,154.8,2602.4,154.8z"/>
			<path class="st9" d="M2624.4,154.8c-2.8,0-5-1.1-6.5-3.2c-1.5-2.1-2.3-5.3-2.3-9.4c0-4.1,0.8-7.3,2.3-9.4s3.7-3.2,6.5-3.2
				s5,1.1,6.5,3.2s2.3,5.3,2.3,9.4c0,4.1-0.8,7.3-2.3,9.4C2629.4,153.7,2627.2,154.8,2624.4,154.8z M2624.4,153.1
				c1,0,1.8-0.2,2.5-0.6c0.7-0.4,1.2-0.9,1.7-1.7c0.4-0.7,0.7-1.6,0.9-2.6s0.3-2.2,0.3-3.5v-5.1c0-1.3-0.1-2.4-0.3-3.5
				c-0.2-1-0.5-1.9-0.9-2.6c-0.4-0.7-1-1.3-1.7-1.7c-0.7-0.4-1.5-0.6-2.5-0.6s-1.8,0.2-2.5,0.6c-0.7,0.4-1.2,0.9-1.7,1.7
				c-0.4,0.7-0.7,1.6-0.9,2.6c-0.2,1-0.3,2.2-0.3,3.5v5.1c0,1.3,0.1,2.4,0.3,3.5c0.2,1,0.5,1.9,0.9,2.6c0.4,0.7,1,1.3,1.7,1.7
				C2622.6,152.9,2623.4,153.1,2624.4,153.1z"/>
			<path class="st9" d="M2644.8,152.8h2.6v-14.9h-2.6v-1.6h14.1v5.3h-2.1V138h-6.5v14.7h3.3v1.6h-8.8V152.8z"/>
			<path class="st9" d="M2661.1,154.8c-0.7,0-1.2-0.2-1.6-0.6c-0.4-0.4-0.6-0.9-0.6-1.5v-0.2c0-0.6,0.2-1.1,0.6-1.5
				c0.4-0.4,0.9-0.6,1.6-0.6s1.2,0.2,1.6,0.6c0.4,0.4,0.6,0.9,0.6,1.5v0.2c0,0.6-0.2,1.1-0.6,1.5
				C2662.3,154.6,2661.8,154.8,2661.1,154.8z"/>
		</g>
	</g>
	<g>
		<g>
			<path class="st9" d="M2037.6,152.1h8.7v-29.2l-9,4.1l-0.8-2.1l10.2-5.5h3.8v32.6h8.4v2.2h-21.3V152.1z"/>
			<path class="st9" d="M2070.5,152.9c2.1-0.4,4.1-1.1,5.8-2.1s3.3-2.2,4.5-3.7c1.3-1.5,2.3-3.1,3-5c0.8-1.9,1.2-3.9,1.5-6l-0.3,0
				c-0.3,0.6-0.6,1.2-1.1,1.8c-0.5,0.6-1,1.1-1.7,1.6c-0.7,0.5-1.5,0.8-2.4,1.1c-0.9,0.3-1.9,0.5-3,0.5c-1.6,0-3-0.3-4.3-0.8
				c-1.3-0.5-2.4-1.3-3.2-2.2c-0.9-1-1.6-2.1-2.1-3.5c-0.5-1.3-0.7-2.8-0.7-4.5c0-1.7,0.3-3.2,0.9-4.6c0.6-1.4,1.4-2.6,2.5-3.6
				c1-1,2.3-1.8,3.7-2.3c1.4-0.5,3-0.8,4.6-0.8c3.8,0,6.8,1.2,8.8,3.7c2,2.4,3,5.9,3,10.2c0,3.2-0.5,6-1.5,8.6s-2.3,4.8-4,6.6
				c-1.7,1.9-3.7,3.4-6,4.6c-2.3,1.2-4.7,2-7.3,2.4L2070.5,152.9z M2078.2,138.4c1.3,0,2.4-0.2,3.2-0.6c0.9-0.4,1.6-1,2.2-1.7
				c0.6-0.7,1-1.6,1.3-2.5s0.4-2.1,0.4-3.2v-0.9c0-1.1-0.1-2.2-0.4-3.2s-0.7-1.9-1.3-2.6c-0.6-0.7-1.3-1.3-2.2-1.7
				c-0.9-0.4-2-0.6-3.2-0.6s-2.3,0.2-3.2,0.6c-0.9,0.4-1.6,1-2.2,1.7c-0.6,0.7-1,1.6-1.3,2.6s-0.4,2.1-0.4,3.2v0.9
				c0,1.2,0.1,2.2,0.4,3.2s0.7,1.8,1.3,2.5c0.6,0.7,1.3,1.3,2.2,1.7C2075.8,138.2,2076.9,138.4,2078.2,138.4z"/>
			<path class="st9" d="M2108.2,155c-4,0-7.1-1.5-9.2-4.6c-2.1-3.1-3.2-7.5-3.2-13.4c0-5.9,1.1-10.4,3.2-13.5
				c2.2-3.1,5.2-4.6,9.2-4.6s7.1,1.5,9.2,4.6c2.2,3.1,3.2,7.5,3.2,13.5c0,5.9-1.1,10.4-3.2,13.4C2115.3,153.4,2112.2,155,2108.2,155
				z M2108.2,152.5c1.4,0,2.6-0.3,3.6-0.8c1-0.5,1.8-1.3,2.4-2.4c0.6-1,1.1-2.3,1.4-3.8c0.3-1.5,0.4-3.1,0.4-5v-7.3
				c0-1.8-0.1-3.5-0.4-5c-0.3-1.5-0.7-2.7-1.4-3.8c-0.6-1-1.4-1.8-2.4-2.4c-1-0.5-2.2-0.8-3.6-0.8c-1.4,0-2.6,0.3-3.6,0.8
				c-1,0.5-1.8,1.3-2.4,2.4c-0.6,1-1.1,2.3-1.3,3.8c-0.3,1.5-0.4,3.1-0.4,5v7.3c0,1.8,0.1,3.5,0.4,5s0.7,2.7,1.3,3.8
				c0.6,1,1.4,1.8,2.4,2.4C2105.6,152.2,2106.8,152.5,2108.2,152.5z"/>
			<path class="st9" d="M2138.2,155c-4,0-7.1-1.5-9.2-4.6c-2.2-3.1-3.2-7.5-3.2-13.4c0-5.9,1.1-10.4,3.2-13.5
				c2.1-3.1,5.2-4.6,9.2-4.6s7.1,1.5,9.2,4.6c2.1,3.1,3.2,7.5,3.2,13.5c0,5.9-1.1,10.4-3.2,13.4C2145.3,153.4,2142.2,155,2138.2,155
				z M2138.2,152.5c1.4,0,2.6-0.3,3.6-0.8c1-0.5,1.8-1.3,2.4-2.4c0.6-1,1.1-2.3,1.3-3.8s0.4-3.1,0.4-5v-7.3c0-1.8-0.1-3.5-0.4-5
				c-0.3-1.5-0.7-2.7-1.3-3.8c-0.6-1-1.4-1.8-2.4-2.4c-1-0.5-2.2-0.8-3.6-0.8c-1.4,0-2.6,0.3-3.6,0.8s-1.8,1.3-2.4,2.4
				c-0.6,1-1.1,2.3-1.4,3.8c-0.3,1.5-0.4,3.1-0.4,5v7.3c0,1.8,0.1,3.5,0.4,5s0.7,2.7,1.4,3.8c0.6,1,1.4,1.8,2.4,2.4
				S2136.8,152.5,2138.2,152.5z"/>
			<path class="st9" d="M2167.3,152.1h3.7v-21.2h-3.7v-2.2h20.1v7.6h-3V131h-9.3v21h4.7v2.3h-12.5V152.1z"/>
			<path class="st9" d="M2190.6,155c-1,0-1.7-0.3-2.3-0.9c-0.5-0.6-0.8-1.3-0.8-2.1v-0.3c0-0.8,0.3-1.5,0.8-2.1
				c0.6-0.6,1.3-0.9,2.3-0.9s1.7,0.3,2.3,0.9c0.5,0.6,0.8,1.3,0.8,2.1v0.3c0,0.8-0.3,1.5-0.8,2.1
				C2192.4,154.7,2191.6,155,2190.6,155z"/>
		</g>
	</g>
	<g>
		<g>
			<path class="st9" d="M3020.8,151.1l11.4-11.4c1.7-1.7,3-3.3,3.9-5s1.4-3.5,1.4-5.5v-1.1c0-2.1-0.6-3.8-1.8-5
				c-1.2-1.2-2.9-1.8-5.1-1.8c-1.2,0-2.2,0.1-3,0.4c-0.8,0.2-1.5,0.5-2,0.8v0.1c0.4,0.2,0.8,0.5,1.2,1c0.4,0.5,0.6,1.1,0.6,1.9
				c0,0.9-0.3,1.6-0.9,2.2c-0.6,0.6-1.3,0.9-2.1,0.9c-0.9,0-1.7-0.3-2.2-0.9c-0.5-0.6-0.8-1.4-0.8-2.4c0-0.8,0.3-1.6,0.8-2.4
				c0.5-0.8,1.2-1.4,2.1-2c0.9-0.6,1.9-1,3.1-1.4c1.2-0.3,2.5-0.5,3.9-0.5c3.4,0,6,0.8,8,2.5c2,1.7,2.9,4,2.9,7
				c0,1.5-0.2,2.9-0.6,4.1c-0.4,1.2-1,2.4-1.8,3.5c-0.7,1.1-1.6,2.1-2.6,3.1c-1,1-2,1.9-3.1,2.9l-9.5,8.3v0.2h16.5v-4.8h2.5v8.7
				h-22.7V151.1z"/>
			<path class="st9" d="M3062.7,155c-4,0-7.1-1.5-9.2-4.6c-2.1-3.1-3.2-7.5-3.2-13.4c0-5.9,1.1-10.4,3.2-13.5
				c2.1-3.1,5.2-4.6,9.2-4.6s7.1,1.5,9.2,4.6c2.1,3.1,3.2,7.5,3.2,13.5c0,5.9-1.1,10.4-3.2,13.4C3069.8,153.4,3066.7,155,3062.7,155
				z M3062.7,152.5c1.4,0,2.6-0.3,3.6-0.8c1-0.5,1.8-1.3,2.4-2.4c0.6-1,1.1-2.3,1.4-3.8c0.3-1.5,0.4-3.1,0.4-5v-7.3
				c0-1.8-0.1-3.5-0.4-5c-0.3-1.5-0.7-2.7-1.4-3.8c-0.6-1-1.4-1.8-2.4-2.4c-1-0.5-2.2-0.8-3.6-0.8s-2.6,0.3-3.6,0.8
				c-1,0.5-1.8,1.3-2.4,2.4c-0.6,1-1.1,2.3-1.4,3.8c-0.3,1.5-0.4,3.1-0.4,5v7.3c0,1.8,0.1,3.5,0.4,5s0.7,2.7,1.4,3.8
				c0.6,1,1.4,1.8,2.4,2.4C3060.1,152.2,3061.3,152.5,3062.7,152.5z"/>
			<path class="st9" d="M3092.7,155c-4,0-7.1-1.5-9.2-4.6c-2.1-3.1-3.2-7.5-3.2-13.4c0-5.9,1.1-10.4,3.2-13.5
				c2.1-3.1,5.2-4.6,9.2-4.6s7.1,1.5,9.2,4.6c2.1,3.1,3.2,7.5,3.2,13.5c0,5.9-1.1,10.4-3.2,13.4C3099.8,153.4,3096.7,155,3092.7,155
				z M3092.7,152.5c1.4,0,2.6-0.3,3.6-0.8c1-0.5,1.8-1.3,2.4-2.4c0.6-1,1.1-2.3,1.4-3.8c0.3-1.5,0.4-3.1,0.4-5v-7.3
				c0-1.8-0.1-3.5-0.4-5c-0.3-1.5-0.7-2.7-1.4-3.8c-0.6-1-1.4-1.8-2.4-2.4c-1-0.5-2.2-0.8-3.6-0.8s-2.6,0.3-3.6,0.8
				c-1,0.5-1.8,1.3-2.4,2.4c-0.6,1-1.1,2.3-1.4,3.8c-0.3,1.5-0.4,3.1-0.4,5v7.3c0,1.8,0.1,3.5,0.4,5s0.7,2.7,1.4,3.8
				c0.6,1,1.4,1.8,2.4,2.4C3090.1,152.2,3091.3,152.5,3092.7,152.5z"/>
			<path class="st9" d="M3122.7,155c-4,0-7.1-1.5-9.2-4.6c-2.1-3.1-3.2-7.5-3.2-13.4c0-5.9,1.1-10.4,3.2-13.5
				c2.1-3.1,5.2-4.6,9.2-4.6s7.1,1.5,9.2,4.6c2.1,3.1,3.2,7.5,3.2,13.5c0,5.9-1.1,10.4-3.2,13.4C3129.8,153.4,3126.7,155,3122.7,155
				z M3122.7,152.5c1.4,0,2.6-0.3,3.6-0.8c1-0.5,1.8-1.3,2.4-2.4c0.6-1,1.1-2.3,1.4-3.8c0.3-1.5,0.4-3.1,0.4-5v-7.3
				c0-1.8-0.1-3.5-0.4-5c-0.3-1.5-0.7-2.7-1.4-3.8c-0.6-1-1.4-1.8-2.4-2.4c-1-0.5-2.2-0.8-3.6-0.8s-2.6,0.3-3.6,0.8
				c-1,0.5-1.8,1.3-2.4,2.4c-0.6,1-1.1,2.3-1.4,3.8c-0.3,1.5-0.4,3.1-0.4,5v7.3c0,1.8,0.1,3.5,0.4,5s0.7,2.7,1.4,3.8
				c0.6,1,1.4,1.8,2.4,2.4C3120.1,152.2,3121.3,152.5,3122.7,152.5z"/>
			<path class="st9" d="M3151.8,152.1h3.7v-21.2h-3.7v-2.2h20.1v7.6h-3V131h-9.4v21h4.7v2.3h-12.5V152.1z"/>
			<path class="st9" d="M3175.2,155c-1,0-1.7-0.3-2.3-0.9c-0.5-0.6-0.8-1.3-0.8-2.1v-0.3c0-0.8,0.3-1.5,0.8-2.1
				c0.6-0.6,1.3-0.9,2.3-0.9c1,0,1.7,0.3,2.3,0.9c0.5,0.6,0.8,1.3,0.8,2.1v0.3c0,0.8-0.3,1.5-0.8,2.1
				C3176.9,154.7,3176.1,155,3175.2,155z"/>
		</g>
	</g>
	<g>
		<line class="st11" x1="148.8" y1="172.6" x2="148.8" y2="197.6"/>
		<line class="st11" x1="1132.5" y1="172.6" x2="1132.5" y2="197.6"/>
		<line class="st11" x1="2116.1" y1="172.6" x2="2116.1" y2="197.6"/>
		<line class="st11" x1="3099.8" y1="172.6" x2="3099.8" y2="197.6"/>
	</g>
	<g>
		<line class="st12" x1="640.9" y1="172.4" x2="640.9" y2="197.4"/>
		<line class="st12" x1="1624.6" y1="172.4" x2="1624.6" y2="197.4"/>
		<line class="st12" x1="2608.4" y1="172.4" x2="2608.4" y2="197.4"/>
	</g>
	<g>
		<line class="st13" x1="149" y1="177.6" x2="149" y2="197.6"/>
		<line class="st13" x1="247.4" y1="177.6" x2="247.4" y2="197.6"/>
		<line class="st13" x1="345.8" y1="177.6" x2="345.8" y2="197.6"/>
		<line class="st13" x1="444.1" y1="177.6" x2="444.1" y2="197.6"/>
		<line class="st13" x1="542.5" y1="177.6" x2="542.5" y2="197.6"/>
		<line class="st13" x1="739.3" y1="177.6" x2="739.3" y2="197.6"/>
		<line class="st13" x1="837.6" y1="177.6" x2="837.6" y2="197.6"/>
		<line class="st13" x1="936" y1="177.6" x2="936" y2="197.6"/>
		<line class="st13" x1="1034.4" y1="177.6" x2="1034.4" y2="197.6"/>
		<line class="st13" x1="1132.8" y1="177.6" x2="1132.8" y2="197.6"/>
		<line class="st13" x1="1231.1" y1="177.6" x2="1231.1" y2="197.6"/>
		<line class="st13" x1="1329.5" y1="177.6" x2="1329.5" y2="197.6"/>
		<line class="st13" x1="1427.9" y1="177.6" x2="1427.9" y2="197.6"/>
		<line class="st13" x1="1526.3" y1="177.6" x2="1526.3" y2="197.6"/>
		<line class="st13" x1="1723" y1="177.6" x2="1723" y2="197.6"/>
		<line class="st13" x1="1821.4" y1="177.6" x2="1821.4" y2="197.6"/>
		<line class="st13" x1="1919.8" y1="177.6" x2="1919.8" y2="197.6"/>
		<line class="st13" x1="2018.1" y1="177.6" x2="2018.1" y2="197.6"/>
		<line class="st13" x1="2116.5" y1="177.6" x2="2116.5" y2="197.6"/>
		<line class="st13" x1="2214.9" y1="177.6" x2="2214.9" y2="197.6"/>
		<line class="st13" x1="2313.3" y1="177.6" x2="2313.3" y2="197.6"/>
		<line class="st13" x1="2411.6" y1="177.6" x2="2411.6" y2="197.6"/>
		<line class="st13" x1="2510" y1="177.6" x2="2510" y2="197.6"/>
		<line class="st13" x1="2706.8" y1="177.6" x2="2706.8" y2="197.6"/>
		<line class="st13" x1="2805.1" y1="177.6" x2="2805.1" y2="197.6"/>
		<line class="st13" x1="2903.5" y1="177.6" x2="2903.5" y2="197.6"/>
		<line class="st13" x1="3001.9" y1="177.6" x2="3001.9" y2="197.6"/>
		<line class="st13" x1="3100.3" y1="177.6" x2="3100.3" y2="197.6"/>
		<line class="st13" x1="3198.6" y1="177.6" x2="3198.6" y2="197.6"/>
		<line class="st13" x1="3297" y1="177.6" x2="3297" y2="197.6"/>
	</g>
	<g>
		<line class="st14" x1="50.6" y1="183.9" x2="50.6" y2="198.9"/>
		<line class="st14" x1="60.5" y1="183.9" x2="60.5" y2="198.9"/>
		<line class="st14" x1="70.3" y1="183.9" x2="70.3" y2="198.9"/>
		<line class="st14" x1="80.1" y1="183.9" x2="80.1" y2="198.9"/>
		<line class="st14" x1="90" y1="183.9" x2="90" y2="198.9"/>
		<line class="st14" x1="99.8" y1="183.9" x2="99.8" y2="198.9"/>
		<line class="st14" x1="109.7" y1="183.9" x2="109.7" y2="198.9"/>
		<line class="st14" x1="119.5" y1="183.9" x2="119.5" y2="198.9"/>
		<line class="st14" x1="129.3" y1="183.9" x2="129.3" y2="198.9"/>
		<line class="st14" x1="139.2" y1="183.9" x2="139.2" y2="198.9"/>
		<line class="st14" x1="149" y1="183.9" x2="149" y2="198.9"/>
		<line class="st14" x1="158.8" y1="183.9" x2="158.8" y2="198.9"/>
		<line class="st14" x1="168.7" y1="183.9" x2="168.7" y2="198.9"/>
		<line class="st14" x1="178.5" y1="183.9" x2="178.5" y2="198.9"/>
		<line class="st14" x1="188.4" y1="183.9" x2="188.4" y2="198.9"/>
		<line class="st14" x1="198.2" y1="183.9" x2="198.2" y2="198.9"/>
		<line class="st14" x1="208" y1="183.9" x2="208" y2="198.9"/>
		<line class="st14" x1="217.9" y1="183.9" x2="217.9" y2="198.9"/>
		<line class="st14" x1="227.7" y1="183.9" x2="227.7" y2="198.9"/>
		<line class="st14" x1="237.5" y1="183.9" x2="237.5" y2="198.9"/>
		<line class="st14" x1="247.4" y1="183.9" x2="247.4" y2="198.9"/>
		<line class="st14" x1="257.2" y1="183.9" x2="257.2" y2="198.9"/>
		<line class="st14" x1="267.1" y1="183.9" x2="267.1" y2="198.9"/>
		<line class="st14" x1="276.9" y1="183.9" x2="276.9" y2="198.9"/>
		<line class="st14" x1="286.7" y1="183.9" x2="286.7" y2="198.9"/>
		<line class="st14" x1="296.6" y1="183.9" x2="296.6" y2="198.9"/>
		<line class="st14" x1="306.4" y1="183.9" x2="306.4" y2="198.9"/>
		<line class="st14" x1="316.2" y1="183.9" x2="316.2" y2="198.9"/>
		<line class="st14" x1="326.1" y1="183.9" x2="326.1" y2="198.9"/>
		<line class="st14" x1="335.9" y1="183.9" x2="335.9" y2="198.9"/>
		<line class="st14" x1="345.8" y1="183.9" x2="345.8" y2="198.9"/>
		<line class="st14" x1="355.6" y1="183.9" x2="355.6" y2="198.9"/>
		<line class="st14" x1="365.4" y1="183.9" x2="365.4" y2="198.9"/>
		<line class="st14" x1="375.3" y1="183.9" x2="375.3" y2="198.9"/>
		<line class="st14" x1="385.1" y1="183.9" x2="385.1" y2="198.9"/>
		<line class="st14" x1="394.9" y1="183.9" x2="394.9" y2="198.9"/>
		<line class="st14" x1="404.8" y1="183.9" x2="404.8" y2="198.9"/>
		<line class="st14" x1="414.6" y1="183.9" x2="414.6" y2="198.9"/>
		<line class="st14" x1="424.5" y1="183.9" x2="424.5" y2="198.9"/>
		<line class="st14" x1="434.3" y1="183.9" x2="434.3" y2="198.9"/>
		<line class="st14" x1="444.1" y1="183.9" x2="444.1" y2="198.9"/>
		<line class="st14" x1="454" y1="183.9" x2="454" y2="198.9"/>
		<line class="st14" x1="463.8" y1="183.9" x2="463.8" y2="198.9"/>
		<line class="st14" x1="473.6" y1="183.9" x2="473.6" y2="198.9"/>
		<line class="st14" x1="483.5" y1="183.9" x2="483.5" y2="198.9"/>
		<line class="st14" x1="493.3" y1="183.9" x2="493.3" y2="198.9"/>
		<line class="st14" x1="503.2" y1="183.9" x2="503.2" y2="198.9"/>
		<line class="st14" x1="513" y1="183.9" x2="513" y2="198.9"/>
		<line class="st14" x1="522.8" y1="183.9" x2="522.8" y2="198.9"/>
		<line class="st14" x1="532.7" y1="183.9" x2="532.7" y2="198.9"/>
		<line class="st14" x1="542.5" y1="183.9" x2="542.5" y2="198.9"/>
		<line class="st14" x1="552.3" y1="183.9" x2="552.3" y2="198.9"/>
		<line class="st14" x1="562.2" y1="183.9" x2="562.2" y2="198.9"/>
		<line class="st14" x1="572" y1="183.9" x2="572" y2="198.9"/>
		<line class="st14" x1="581.9" y1="183.9" x2="581.9" y2="198.9"/>
		<line class="st14" x1="591.7" y1="183.9" x2="591.7" y2="198.9"/>
		<line class="st14" x1="601.5" y1="183.9" x2="601.5" y2="198.9"/>
		<line class="st14" x1="611.4" y1="183.9" x2="611.4" y2="198.9"/>
		<line class="st14" x1="621.2" y1="183.9" x2="621.2" y2="198.9"/>
		<line class="st14" x1="631" y1="183.9" x2="631" y2="198.9"/>
		<line class="st14" x1="640.9" y1="183.9" x2="640.9" y2="198.9"/>
		<line class="st14" x1="650.7" y1="183.9" x2="650.7" y2="198.9"/>
		<line class="st14" x1="660.6" y1="183.9" x2="660.6" y2="198.9"/>
		<line class="st14" x1="670.4" y1="183.9" x2="670.4" y2="198.9"/>
		<line class="st14" x1="680.2" y1="183.9" x2="680.2" y2="198.9"/>
		<line class="st14" x1="690.1" y1="183.9" x2="690.1" y2="198.9"/>
		<line class="st14" x1="699.9" y1="183.9" x2="699.9" y2="198.9"/>
		<line class="st14" x1="709.7" y1="183.9" x2="709.7" y2="198.9"/>
		<line class="st14" x1="719.6" y1="183.9" x2="719.6" y2="198.9"/>
		<line class="st14" x1="729.4" y1="183.9" x2="729.4" y2="198.9"/>
		<line class="st14" x1="739.3" y1="183.9" x2="739.3" y2="198.9"/>
		<line class="st14" x1="749.1" y1="183.9" x2="749.1" y2="198.9"/>
		<line class="st14" x1="758.9" y1="183.9" x2="758.9" y2="198.9"/>
		<line class="st14" x1="768.8" y1="183.9" x2="768.8" y2="198.9"/>
		<line class="st14" x1="778.6" y1="183.9" x2="778.6" y2="198.9"/>
		<line class="st14" x1="788.4" y1="183.9" x2="788.4" y2="198.9"/>
		<line class="st14" x1="798.3" y1="183.9" x2="798.3" y2="198.9"/>
		<line class="st14" x1="808.1" y1="183.9" x2="808.1" y2="198.9"/>
		<line class="st14" x1="818" y1="183.9" x2="818" y2="198.9"/>
		<line class="st14" x1="827.8" y1="183.9" x2="827.8" y2="198.9"/>
		<line class="st14" x1="837.6" y1="183.9" x2="837.6" y2="198.9"/>
		<line class="st14" x1="847.5" y1="183.9" x2="847.5" y2="198.9"/>
		<line class="st14" x1="857.3" y1="183.9" x2="857.3" y2="198.9"/>
		<line class="st14" x1="867.1" y1="183.9" x2="867.1" y2="198.9"/>
		<line class="st14" x1="877" y1="183.9" x2="877" y2="198.9"/>
		<line class="st14" x1="886.8" y1="183.9" x2="886.8" y2="198.9"/>
		<line class="st14" x1="896.7" y1="183.9" x2="896.7" y2="198.9"/>
		<line class="st14" x1="906.5" y1="183.9" x2="906.5" y2="198.9"/>
		<line class="st14" x1="916.3" y1="183.9" x2="916.3" y2="198.9"/>
		<line class="st14" x1="926.2" y1="183.9" x2="926.2" y2="198.9"/>
		<line class="st14" x1="936" y1="183.9" x2="936" y2="198.9"/>
		<line class="st14" x1="945.8" y1="183.9" x2="945.8" y2="198.9"/>
		<line class="st14" x1="955.7" y1="183.9" x2="955.7" y2="198.9"/>
		<line class="st14" x1="965.5" y1="183.9" x2="965.5" y2="198.9"/>
		<line class="st14" x1="975.4" y1="183.9" x2="975.4" y2="198.9"/>
		<line class="st14" x1="985.2" y1="183.9" x2="985.2" y2="198.9"/>
		<line class="st14" x1="995" y1="183.9" x2="995" y2="198.9"/>
		<line class="st14" x1="1004.9" y1="183.9" x2="1004.9" y2="198.9"/>
		<line class="st14" x1="1014.7" y1="183.9" x2="1014.7" y2="198.9"/>
		<line class="st14" x1="1024.5" y1="183.9" x2="1024.5" y2="198.9"/>
		<line class="st14" x1="1034.4" y1="183.9" x2="1034.4" y2="198.9"/>
		<line class="st14" x1="1044.2" y1="183.9" x2="1044.2" y2="198.9"/>
		<line class="st14" x1="1054.1" y1="183.9" x2="1054.1" y2="198.9"/>
		<line class="st14" x1="1063.9" y1="183.9" x2="1063.9" y2="198.9"/>
		<line class="st14" x1="1073.7" y1="183.9" x2="1073.7" y2="198.9"/>
		<line class="st14" x1="1083.6" y1="183.9" x2="1083.6" y2="198.9"/>
		<line class="st14" x1="1093.4" y1="183.9" x2="1093.4" y2="198.9"/>
		<line class="st14" x1="1103.2" y1="183.9" x2="1103.2" y2="198.9"/>
		<line class="st14" x1="1113.1" y1="183.9" x2="1113.1" y2="198.9"/>
		<line class="st14" x1="1122.9" y1="183.9" x2="1122.9" y2="198.9"/>
		<line class="st14" x1="1132.8" y1="183.9" x2="1132.8" y2="198.9"/>
		<line class="st14" x1="1142.6" y1="183.9" x2="1142.6" y2="198.9"/>
		<line class="st14" x1="1152.4" y1="183.9" x2="1152.4" y2="198.9"/>
		<line class="st14" x1="1162.3" y1="183.9" x2="1162.3" y2="198.9"/>
		<line class="st14" x1="1172.1" y1="183.9" x2="1172.1" y2="198.9"/>
		<line class="st14" x1="1181.9" y1="183.9" x2="1181.9" y2="198.9"/>
		<line class="st14" x1="1191.8" y1="183.9" x2="1191.8" y2="198.9"/>
		<line class="st14" x1="1201.6" y1="183.9" x2="1201.6" y2="198.9"/>
		<line class="st14" x1="1211.5" y1="183.9" x2="1211.5" y2="198.9"/>
		<line class="st14" x1="1221.3" y1="183.9" x2="1221.3" y2="198.9"/>
		<line class="st14" x1="1231.1" y1="183.9" x2="1231.1" y2="198.9"/>
		<line class="st14" x1="1241" y1="183.9" x2="1241" y2="198.9"/>
		<line class="st14" x1="1250.8" y1="183.9" x2="1250.8" y2="198.9"/>
		<line class="st14" x1="1260.6" y1="183.9" x2="1260.6" y2="198.9"/>
		<line class="st14" x1="1270.5" y1="183.9" x2="1270.5" y2="198.9"/>
		<line class="st14" x1="1280.3" y1="183.9" x2="1280.3" y2="198.9"/>
		<line class="st14" x1="1290.2" y1="183.9" x2="1290.2" y2="198.9"/>
		<line class="st14" x1="1300" y1="183.9" x2="1300" y2="198.9"/>
		<line class="st14" x1="1309.8" y1="183.9" x2="1309.8" y2="198.9"/>
		<line class="st14" x1="1319.7" y1="183.9" x2="1319.7" y2="198.9"/>
		<line class="st14" x1="1329.5" y1="183.9" x2="1329.5" y2="198.9"/>
		<line class="st14" x1="1339.3" y1="183.9" x2="1339.3" y2="198.9"/>
		<line class="st14" x1="1349.2" y1="183.9" x2="1349.2" y2="198.9"/>
		<line class="st14" x1="1359" y1="183.9" x2="1359" y2="198.9"/>
		<line class="st14" x1="1368.9" y1="183.9" x2="1368.9" y2="198.9"/>
		<line class="st14" x1="1378.7" y1="183.9" x2="1378.7" y2="198.9"/>
		<line class="st14" x1="1388.5" y1="183.9" x2="1388.5" y2="198.9"/>
		<line class="st14" x1="1398.4" y1="183.9" x2="1398.4" y2="198.9"/>
		<line class="st14" x1="1408.2" y1="183.9" x2="1408.2" y2="198.9"/>
		<line class="st14" x1="1418" y1="183.9" x2="1418" y2="198.9"/>
		<line class="st14" x1="1427.9" y1="183.9" x2="1427.9" y2="198.9"/>
		<line class="st14" x1="1437.7" y1="183.9" x2="1437.7" y2="198.9"/>
		<line class="st14" x1="1447.6" y1="183.9" x2="1447.6" y2="198.9"/>
		<line class="st14" x1="1457.4" y1="183.9" x2="1457.4" y2="198.9"/>
		<line class="st14" x1="1467.2" y1="183.9" x2="1467.2" y2="198.9"/>
		<line class="st14" x1="1477.1" y1="183.9" x2="1477.1" y2="198.9"/>
		<line class="st14" x1="1486.9" y1="183.9" x2="1486.9" y2="198.9"/>
		<line class="st14" x1="1496.7" y1="183.9" x2="1496.7" y2="198.9"/>
		<line class="st14" x1="1506.6" y1="183.9" x2="1506.6" y2="198.9"/>
		<line class="st14" x1="1516.4" y1="183.9" x2="1516.4" y2="198.9"/>
		<line class="st14" x1="1526.3" y1="183.9" x2="1526.3" y2="198.9"/>
		<line class="st14" x1="1536.1" y1="183.9" x2="1536.1" y2="198.9"/>
		<line class="st14" x1="1545.9" y1="183.9" x2="1545.9" y2="198.9"/>
		<line class="st14" x1="1555.8" y1="183.9" x2="1555.8" y2="198.9"/>
		<line class="st14" x1="1565.6" y1="183.9" x2="1565.6" y2="198.9"/>
		<line class="st14" x1="1575.4" y1="183.9" x2="1575.4" y2="198.9"/>
		<line class="st14" x1="1585.3" y1="183.9" x2="1585.3" y2="198.9"/>
		<line class="st14" x1="1595.1" y1="183.9" x2="1595.1" y2="198.9"/>
		<line class="st14" x1="1605" y1="183.9" x2="1605" y2="198.9"/>
		<line class="st14" x1="1614.8" y1="183.9" x2="1614.8" y2="198.9"/>
		<line class="st14" x1="1624.6" y1="183.9" x2="1624.6" y2="198.9"/>
		<line class="st14" x1="1634.5" y1="183.9" x2="1634.5" y2="198.9"/>
		<line class="st14" x1="1644.3" y1="183.9" x2="1644.3" y2="198.9"/>
		<line class="st14" x1="1654.1" y1="183.9" x2="1654.1" y2="198.9"/>
		<line class="st14" x1="1664" y1="183.9" x2="1664" y2="198.9"/>
		<line class="st14" x1="1673.8" y1="183.9" x2="1673.8" y2="198.9"/>
		<line class="st14" x1="1683.7" y1="183.9" x2="1683.7" y2="198.9"/>
		<line class="st14" x1="1693.5" y1="183.9" x2="1693.5" y2="198.9"/>
		<line class="st14" x1="1703.3" y1="183.9" x2="1703.3" y2="198.9"/>
		<line class="st14" x1="1713.2" y1="183.9" x2="1713.2" y2="198.9"/>
		<line class="st14" x1="1723" y1="183.9" x2="1723" y2="198.9"/>
		<line class="st14" x1="1732.8" y1="183.9" x2="1732.8" y2="198.9"/>
		<line class="st14" x1="1742.7" y1="183.9" x2="1742.7" y2="198.9"/>
		<line class="st14" x1="1752.5" y1="183.9" x2="1752.5" y2="198.9"/>
		<line class="st14" x1="1762.4" y1="183.9" x2="1762.4" y2="198.9"/>
		<line class="st14" x1="1772.2" y1="183.9" x2="1772.2" y2="198.9"/>
		<line class="st14" x1="1782" y1="183.9" x2="1782" y2="198.9"/>
		<line class="st14" x1="1791.9" y1="183.9" x2="1791.9" y2="198.9"/>
		<line class="st14" x1="1801.7" y1="183.9" x2="1801.7" y2="198.9"/>
		<line class="st14" x1="1811.5" y1="183.9" x2="1811.5" y2="198.9"/>
		<line class="st14" x1="1821.4" y1="183.9" x2="1821.4" y2="198.9"/>
		<line class="st14" x1="1831.2" y1="183.9" x2="1831.2" y2="198.9"/>
		<line class="st14" x1="1841.1" y1="183.9" x2="1841.1" y2="198.9"/>
		<line class="st14" x1="1850.9" y1="183.9" x2="1850.9" y2="198.9"/>
		<line class="st14" x1="1860.7" y1="183.9" x2="1860.7" y2="198.9"/>
		<line class="st14" x1="1870.6" y1="183.9" x2="1870.6" y2="198.9"/>
		<line class="st14" x1="1880.4" y1="183.9" x2="1880.4" y2="198.9"/>
		<line class="st14" x1="1890.2" y1="183.9" x2="1890.2" y2="198.9"/>
		<line class="st14" x1="1900.1" y1="183.9" x2="1900.1" y2="198.9"/>
		<line class="st14" x1="1909.9" y1="183.9" x2="1909.9" y2="198.9"/>
		<line class="st14" x1="1919.8" y1="183.9" x2="1919.8" y2="198.9"/>
		<line class="st14" x1="1929.6" y1="183.9" x2="1929.6" y2="198.9"/>
		<line class="st14" x1="1939.4" y1="183.9" x2="1939.4" y2="198.9"/>
		<line class="st14" x1="1949.3" y1="183.9" x2="1949.3" y2="198.9"/>
		<line class="st14" x1="1959.1" y1="183.9" x2="1959.1" y2="198.9"/>
		<line class="st14" x1="1968.9" y1="183.9" x2="1968.9" y2="198.9"/>
		<line class="st14" x1="1978.8" y1="183.9" x2="1978.8" y2="198.9"/>
		<line class="st14" x1="1988.6" y1="183.9" x2="1988.6" y2="198.9"/>
		<line class="st14" x1="1998.5" y1="183.9" x2="1998.5" y2="198.9"/>
		<line class="st14" x1="2008.3" y1="183.9" x2="2008.3" y2="198.9"/>
		<line class="st14" x1="2018.1" y1="183.9" x2="2018.1" y2="198.9"/>
		<line class="st14" x1="2028" y1="183.9" x2="2028" y2="198.9"/>
		<line class="st14" x1="2037.8" y1="183.9" x2="2037.8" y2="198.9"/>
		<line class="st14" x1="2047.6" y1="183.9" x2="2047.6" y2="198.9"/>
		<line class="st14" x1="2057.5" y1="183.9" x2="2057.5" y2="198.9"/>
		<line class="st14" x1="2067.3" y1="183.9" x2="2067.3" y2="198.9"/>
		<line class="st14" x1="2077.2" y1="183.9" x2="2077.2" y2="198.9"/>
		<line class="st14" x1="2087" y1="183.9" x2="2087" y2="198.9"/>
		<line class="st14" x1="2096.8" y1="183.9" x2="2096.8" y2="198.9"/>
		<line class="st14" x1="2106.7" y1="183.9" x2="2106.7" y2="198.9"/>
		<line class="st14" x1="2116.5" y1="183.9" x2="2116.5" y2="198.9"/>
		<line class="st14" x1="2126.3" y1="183.9" x2="2126.3" y2="198.9"/>
		<line class="st14" x1="2136.2" y1="183.9" x2="2136.2" y2="198.9"/>
		<line class="st14" x1="2146" y1="183.9" x2="2146" y2="198.9"/>
		<line class="st14" x1="2155.9" y1="183.9" x2="2155.9" y2="198.9"/>
		<line class="st14" x1="2165.7" y1="183.9" x2="2165.7" y2="198.9"/>
		<line class="st14" x1="2175.5" y1="183.9" x2="2175.5" y2="198.9"/>
		<line class="st14" x1="2185.4" y1="183.9" x2="2185.4" y2="198.9"/>
		<line class="st14" x1="2195.2" y1="183.9" x2="2195.2" y2="198.9"/>
		<line class="st14" x1="2205" y1="183.9" x2="2205" y2="198.9"/>
		<line class="st14" x1="2214.9" y1="183.9" x2="2214.9" y2="198.9"/>
		<line class="st14" x1="2224.7" y1="183.9" x2="2224.7" y2="198.9"/>
		<line class="st14" x1="2234.6" y1="183.9" x2="2234.6" y2="198.9"/>
		<line class="st14" x1="2244.4" y1="183.9" x2="2244.4" y2="198.9"/>
		<line class="st14" x1="2254.2" y1="183.9" x2="2254.2" y2="198.9"/>
		<line class="st14" x1="2264.1" y1="183.9" x2="2264.1" y2="198.9"/>
		<line class="st14" x1="2273.9" y1="183.9" x2="2273.9" y2="198.9"/>
		<line class="st14" x1="2283.7" y1="183.9" x2="2283.7" y2="198.9"/>
		<line class="st14" x1="2293.6" y1="183.9" x2="2293.6" y2="198.9"/>
		<line class="st14" x1="2303.4" y1="183.9" x2="2303.4" y2="198.9"/>
		<line class="st14" x1="2313.3" y1="183.9" x2="2313.3" y2="198.9"/>
		<line class="st14" x1="2323.1" y1="183.9" x2="2323.1" y2="198.9"/>
		<line class="st14" x1="2332.9" y1="183.9" x2="2332.9" y2="198.9"/>
		<line class="st14" x1="2342.8" y1="183.9" x2="2342.8" y2="198.9"/>
		<line class="st14" x1="2352.6" y1="183.9" x2="2352.6" y2="198.9"/>
		<line class="st14" x1="2362.4" y1="183.9" x2="2362.4" y2="198.9"/>
		<line class="st14" x1="2372.3" y1="183.9" x2="2372.3" y2="198.9"/>
		<line class="st14" x1="2382.1" y1="183.9" x2="2382.1" y2="198.9"/>
		<line class="st14" x1="2392" y1="183.9" x2="2392" y2="198.9"/>
		<line class="st14" x1="2401.8" y1="183.9" x2="2401.8" y2="198.9"/>
		<line class="st14" x1="2411.6" y1="183.9" x2="2411.6" y2="198.9"/>
		<line class="st14" x1="2421.5" y1="183.9" x2="2421.5" y2="198.9"/>
		<line class="st14" x1="2431.3" y1="183.9" x2="2431.3" y2="198.9"/>
		<line class="st14" x1="2441.1" y1="183.9" x2="2441.1" y2="198.9"/>
		<line class="st14" x1="2451" y1="183.9" x2="2451" y2="198.9"/>
		<line class="st14" x1="2460.8" y1="183.9" x2="2460.8" y2="198.9"/>
		<line class="st14" x1="2470.7" y1="183.9" x2="2470.7" y2="198.9"/>
		<line class="st14" x1="2480.5" y1="183.9" x2="2480.5" y2="198.9"/>
		<line class="st14" x1="2490.3" y1="183.9" x2="2490.3" y2="198.9"/>
		<line class="st14" x1="2500.2" y1="183.9" x2="2500.2" y2="198.9"/>
		<line class="st14" x1="2510" y1="183.9" x2="2510" y2="198.9"/>
		<line class="st14" x1="2519.8" y1="183.9" x2="2519.8" y2="198.9"/>
		<line class="st14" x1="2529.7" y1="183.9" x2="2529.7" y2="198.9"/>
		<line class="st14" x1="2539.5" y1="183.9" x2="2539.5" y2="198.9"/>
		<line class="st14" x1="2549.4" y1="183.9" x2="2549.4" y2="198.9"/>
		<line class="st14" x1="2559.2" y1="183.9" x2="2559.2" y2="198.9"/>
		<line class="st14" x1="2569" y1="183.9" x2="2569" y2="198.9"/>
		<line class="st14" x1="2578.9" y1="183.9" x2="2578.9" y2="198.9"/>
		<line class="st14" x1="2588.7" y1="183.9" x2="2588.7" y2="198.9"/>
		<line class="st14" x1="2598.5" y1="183.9" x2="2598.5" y2="198.9"/>
		<line class="st14" x1="2608.4" y1="183.9" x2="2608.4" y2="198.9"/>
		<line class="st14" x1="2618.2" y1="183.9" x2="2618.2" y2="198.9"/>
		<line class="st14" x1="2628.1" y1="183.9" x2="2628.1" y2="198.9"/>
		<line class="st14" x1="2637.9" y1="183.9" x2="2637.9" y2="198.9"/>
		<line class="st14" x1="2647.7" y1="183.9" x2="2647.7" y2="198.9"/>
		<line class="st14" x1="2657.6" y1="183.9" x2="2657.6" y2="198.9"/>
		<line class="st14" x1="2667.4" y1="183.9" x2="2667.4" y2="198.9"/>
		<line class="st14" x1="2677.2" y1="183.9" x2="2677.2" y2="198.9"/>
		<line class="st14" x1="2687.1" y1="183.9" x2="2687.1" y2="198.9"/>
		<line class="st14" x1="2696.9" y1="183.9" x2="2696.9" y2="198.9"/>
		<line class="st14" x1="2706.8" y1="183.9" x2="2706.8" y2="198.9"/>
		<line class="st14" x1="2716.6" y1="183.9" x2="2716.6" y2="198.9"/>
		<line class="st14" x1="2726.4" y1="183.9" x2="2726.4" y2="198.9"/>
		<line class="st14" x1="2736.3" y1="183.9" x2="2736.3" y2="198.9"/>
		<line class="st14" x1="2746.1" y1="183.9" x2="2746.1" y2="198.9"/>
		<line class="st14" x1="2755.9" y1="183.9" x2="2755.9" y2="198.9"/>
		<line class="st14" x1="2765.8" y1="183.9" x2="2765.8" y2="198.9"/>
		<line class="st14" x1="2775.6" y1="183.9" x2="2775.6" y2="198.9"/>
		<line class="st14" x1="2785.5" y1="183.9" x2="2785.5" y2="198.9"/>
		<line class="st14" x1="2795.3" y1="183.9" x2="2795.3" y2="198.9"/>
		<line class="st14" x1="2805.1" y1="183.9" x2="2805.1" y2="198.9"/>
		<line class="st14" x1="2815" y1="183.9" x2="2815" y2="198.9"/>
		<line class="st14" x1="2824.8" y1="183.9" x2="2824.8" y2="198.9"/>
		<line class="st14" x1="2834.6" y1="183.9" x2="2834.6" y2="198.9"/>
		<line class="st14" x1="2844.5" y1="183.9" x2="2844.5" y2="198.9"/>
		<line class="st14" x1="2854.3" y1="183.9" x2="2854.3" y2="198.9"/>
		<line class="st14" x1="2864.2" y1="183.9" x2="2864.2" y2="198.9"/>
		<line class="st14" x1="2874" y1="183.9" x2="2874" y2="198.9"/>
		<line class="st14" x1="2883.8" y1="183.9" x2="2883.8" y2="198.9"/>
		<line class="st14" x1="2893.7" y1="183.9" x2="2893.7" y2="198.9"/>
		<line class="st14" x1="2903.5" y1="183.9" x2="2903.5" y2="198.9"/>
		<line class="st14" x1="2913.3" y1="183.9" x2="2913.3" y2="198.9"/>
		<line class="st14" x1="2923.2" y1="183.9" x2="2923.2" y2="198.9"/>
		<line class="st14" x1="2933" y1="183.9" x2="2933" y2="198.9"/>
		<line class="st14" x1="2942.9" y1="183.9" x2="2942.9" y2="198.9"/>
		<line class="st14" x1="2952.7" y1="183.9" x2="2952.7" y2="198.9"/>
		<line class="st14" x1="2962.5" y1="183.9" x2="2962.5" y2="198.9"/>
		<line class="st14" x1="2972.4" y1="183.9" x2="2972.4" y2="198.9"/>
		<line class="st14" x1="2982.2" y1="183.9" x2="2982.2" y2="198.9"/>
		<line class="st14" x1="2992" y1="183.9" x2="2992" y2="198.9"/>
		<line class="st14" x1="3001.9" y1="183.9" x2="3001.9" y2="198.9"/>
		<line class="st14" x1="3011.7" y1="183.9" x2="3011.7" y2="198.9"/>
		<line class="st14" x1="3021.6" y1="183.9" x2="3021.6" y2="198.9"/>
		<line class="st14" x1="3031.4" y1="183.9" x2="3031.4" y2="198.9"/>
		<line class="st14" x1="3041.2" y1="183.9" x2="3041.2" y2="198.9"/>
		<line class="st14" x1="3051.1" y1="183.9" x2="3051.1" y2="198.9"/>
		<line class="st14" x1="3060.9" y1="183.9" x2="3060.9" y2="198.9"/>
		<line class="st14" x1="3070.7" y1="183.9" x2="3070.7" y2="198.9"/>
		<line class="st14" x1="3080.6" y1="183.9" x2="3080.6" y2="198.9"/>
		<line class="st14" x1="3090.4" y1="183.9" x2="3090.4" y2="198.9"/>
		<line class="st14" x1="3100.3" y1="183.9" x2="3100.3" y2="198.9"/>
		<line class="st14" x1="3110.1" y1="183.9" x2="3110.1" y2="198.9"/>
		<line class="st14" x1="3119.9" y1="183.9" x2="3119.9" y2="198.9"/>
		<line class="st14" x1="3129.8" y1="183.9" x2="3129.8" y2="198.9"/>
		<line class="st14" x1="3139.6" y1="183.9" x2="3139.6" y2="198.9"/>
		<line class="st14" x1="3149.4" y1="183.9" x2="3149.4" y2="198.9"/>
		<line class="st14" x1="3159.3" y1="183.9" x2="3159.3" y2="198.9"/>
		<line class="st14" x1="3169.1" y1="183.9" x2="3169.1" y2="198.9"/>
		<line class="st14" x1="3179" y1="183.9" x2="3179" y2="198.9"/>
		<line class="st14" x1="3188.8" y1="183.9" x2="3188.8" y2="198.9"/>
		<line class="st14" x1="3198.6" y1="183.9" x2="3198.6" y2="198.9"/>
		<line class="st14" x1="3208.5" y1="183.9" x2="3208.5" y2="198.9"/>
		<line class="st14" x1="3218.3" y1="183.9" x2="3218.3" y2="198.9"/>
		<line class="st14" x1="3228.1" y1="183.9" x2="3228.1" y2="198.9"/>
		<line class="st14" x1="3238" y1="183.9" x2="3238" y2="198.9"/>
		<line class="st14" x1="3247.8" y1="183.9" x2="3247.8" y2="198.9"/>
		<line class="st14" x1="3257.7" y1="183.9" x2="3257.7" y2="198.9"/>
		<line class="st14" x1="3267.5" y1="183.9" x2="3267.5" y2="198.9"/>
		<line class="st14" x1="3277.3" y1="183.9" x2="3277.3" y2="198.9"/>
		<line class="st14" x1="3287.2" y1="183.9" x2="3287.2" y2="198.9"/>
		<line class="st14" x1="3297" y1="183.9" x2="3297" y2="198.9"/>
		<line class="st14" x1="3306.8" y1="183.9" x2="3306.8" y2="198.9"/>
		<line class="st14" x1="3316.7" y1="183.9" x2="3316.7" y2="198.9"/>
		<line class="st14" x1="3326.5" y1="183.9" x2="3326.5" y2="198.9"/>
		<line class="st14" x1="3336.4" y1="183.9" x2="3336.4" y2="198.9"/>
		<line class="st14" x1="3346.2" y1="183.9" x2="3346.2" y2="198.9"/>
		<line class="st14" x1="3356" y1="183.9" x2="3356" y2="198.9"/>
		<line class="st14" x1="3365.9" y1="183.9" x2="3365.9" y2="198.9"/>
		<line class="st14" x1="3375.7" y1="183.9" x2="3375.7" y2="198.9"/>
		<line class="st14" x1="3385.5" y1="183.9" x2="3385.5" y2="198.9"/>
		<line class="st14" x1="3395.4" y1="183.9" x2="3395.4" y2="198.9"/>
	</g>
	<line class="st13" x1="50.6" y1="179.1" x2="50.6" y2="199.1"/>
</g>
</svg>
